<svg width="375" height="186" viewBox="0 0 375 186" fill="none" xmlns="http://www.w3.org/2000/svg">
<path d="M0 0H375V186H0V0Z" fill="#A7EBC7"/>
<circle cx="158" cy="46" r="27" fill="#6ACC9E"/>
<circle cx="262" cy="110" r="11" fill="#6ACC9E"/>
<path fill-rule="evenodd" clip-rule="evenodd" d="M161.008 186H100.992C98.4445 181.231 97 175.784 97 170C97 151.222 112.222 136 131 136C149.778 136 165 151.222 165 170C165 175.784 163.556 181.231 161.008 186Z" fill="#6ACC9E"/>
<path d="M346.652 58.8474L355 50.4999L346.652 42.1524V30.3474H334.847L326.5 22L318.153 30.3474H306.348V42.1525L298 50.5L306.347 58.8474V70.6525H318.152L326.5 78.9999L334.847 70.6525H346.652V58.8474H346.652ZM350.277 50.5L346.652 54.1248V46.8753L350.277 50.5ZM326.5 26.7228L330.125 30.3475H322.875L326.5 26.7228ZM302.723 50.5L306.348 46.8753V54.1246L302.723 50.5ZM326.5 74.2772L322.875 70.6525H330.125L326.5 74.2772ZM343.313 67.313H309.687V33.6869H343.313V67.313H343.313Z" fill="#6ACC9E"/>
<path d="M317.177 59.8228H322.638L326.5 63.6845L330.362 59.8228H335.823V54.3616L339.684 50.5L335.823 46.6384V41.1772H330.362L326.5 37.3155L322.638 41.1772H317.177V46.6384L313.315 50.5001L317.177 54.3618V59.8228ZM320.517 48.0216V44.5167H324.022L326.5 42.0384L328.978 44.5167H332.483V48.0216L334.962 50.5001L332.483 52.9786V56.4835H328.978L326.5 58.9619L324.022 56.4835H320.517V52.9784L318.038 50.5L320.517 48.0216Z" fill="#6ACC9E"/>
<path d="M324.814 48.8302H328.185V52.1698H324.814V48.8302Z" fill="#6ACC9E"/>
<path d="M300.621 24.6369H303.992V27.9764H300.621V24.6369Z" fill="#6ACC9E"/>
<path d="M349.008 73.0235H352.379V76.363H349.008V73.0235Z" fill="#6ACC9E"/>
<path d="M349.008 24.6369H352.379V27.9764H349.008V24.6369Z" fill="#6ACC9E"/>
<path d="M300.621 73.0235H303.992V76.363H300.621V73.0235Z" fill="#6ACC9E"/>
<path d="M181.046 116.454L185 112.5L181.046 108.546V102.954H175.454L171.5 99L167.546 102.954H161.954V108.546L158 112.5L161.954 116.454V122.046H167.546L171.5 126L175.454 122.046H181.046V116.454H181.046ZM182.763 112.5L181.046 114.217V110.783L182.763 112.5ZM171.5 101.237L173.217 102.954H169.783L171.5 101.237ZM160.237 112.5L161.954 110.783V114.217L160.237 112.5ZM171.5 123.763L169.783 122.046H173.217L171.5 123.763ZM179.464 120.464H163.536V104.536H179.464V120.464H179.464Z" fill="#6ACC9E"/>
<path d="M167.084 116.916H169.671L171.5 118.745L173.329 116.916H175.916V114.329L177.745 112.5L175.916 110.671V108.084H173.329L171.5 106.255L169.671 108.084H167.084V110.671L165.255 112.5L167.084 114.329V116.916ZM168.666 111.326V109.666H170.326L171.5 108.492L172.674 109.666H174.334V111.326L175.508 112.5L174.334 113.674V115.334H172.674L171.5 116.508L170.326 115.334H168.666V113.674L167.492 112.5L168.666 111.326Z" fill="#6ACC9E"/>
<path d="M170.702 111.709H172.298V113.291H170.702V111.709Z" fill="#6ACC9E"/>
<path d="M159.242 100.249H160.838V101.831H159.242V100.249Z" fill="#6ACC9E"/>
<path d="M182.162 123.169H183.758V124.751H182.162V123.169Z" fill="#6ACC9E"/>
<path d="M182.162 100.249H183.758V101.831H182.162V100.249Z" fill="#6ACC9E"/>
<path d="M159.242 123.169H160.838V124.751H159.242V123.169Z" fill="#6ACC9E"/>
<path d="M43.753 91.7469L47.9999 87.4999L43.753 83.253V77.2469H37.7469L33.5 73L29.2531 77.2469H23.247V83.253L19 87.5L23.2469 91.7469V97.753H29.253L33.4999 102L37.7469 97.753H43.753V91.7469H43.753ZM45.5972 87.5L43.753 89.3442V85.6559L45.5972 87.5ZM33.5 75.4028L35.3441 77.247H31.6559L33.5 75.4028ZM21.4028 87.5L23.247 85.6559V89.3441L21.4028 87.5ZM33.5 99.5972L31.6559 97.753H35.3441L33.5 99.5972ZM42.054 96.054H24.946V78.946H42.054V96.054H42.054Z" fill="#6ACC9E"/>
<path d="M28.757 92.2432H31.5355L33.5002 94.2079L35.4648 92.2432H38.2434V89.4647L40.208 87.5L38.2434 85.5353V82.7568H35.4648L33.5002 80.7921L31.5355 82.7568H28.757V85.5353L26.7922 87.5001L28.757 89.4648V92.2432ZM30.456 86.2391V84.4559H32.2392L33.5001 83.195L34.7611 84.4559H36.5443V86.2391L37.8052 87.5001L36.5443 88.761V90.5442H34.7611L33.5001 91.8052L32.2392 90.5442H30.456V88.7609L29.1951 87.5L30.456 86.2391Z" fill="#6ACC9E"/>
<path d="M32.6426 86.6505H34.3576V88.3495H32.6426V86.6505Z" fill="#6ACC9E"/>
<path d="M20.3335 74.3416H22.0485V76.0406H20.3335V74.3416Z" fill="#6ACC9E"/>
<path d="M44.9514 98.9593H46.6664V100.658H44.9514V98.9593Z" fill="#6ACC9E"/>
<path d="M44.9514 74.3416H46.6664V76.0406H44.9514V74.3416Z" fill="#6ACC9E"/>
<path d="M20.3335 98.9593H22.0485V100.658H20.3335V98.9593Z" fill="#6ACC9E"/>
</svg>
