<svg width="132" height="27" viewBox="0 0 132 27" fill="none" xmlns="http://www.w3.org/2000/svg">
<circle cx="10" cy="14" r="10" fill="#50D890"/>
<path d="M15.8939 20L13.0139 14.996H11.4479V20H9.3959V7.49H13.7159C14.6759 7.49 15.4859 7.658 16.1459 7.994C16.8179 8.33 17.3159 8.78 17.6399 9.344C17.9759 9.908 18.1439 10.538 18.1439 11.234C18.1439 12.05 17.9039 12.794 17.4239 13.466C16.9559 14.126 16.2299 14.576 15.2459 14.816L18.3419 20H15.8939ZM11.4479 13.358H13.7159C14.4839 13.358 15.0599 13.166 15.4439 12.782C15.8399 12.398 16.0379 11.882 16.0379 11.234C16.0379 10.586 15.8459 10.082 15.4619 9.722C15.0779 9.35 14.4959 9.164 13.7159 9.164H11.4479V13.358ZM20.0849 14.996C20.0849 14 20.2889 13.118 20.6969 12.35C21.1169 11.582 21.6809 10.988 22.3889 10.568C23.1089 10.136 23.9009 9.92 24.7649 9.92C25.5449 9.92 26.2229 10.076 26.7989 10.388C27.3869 10.688 27.8549 11.066 28.2029 11.522V10.082H30.2729V20H28.2029V18.524C27.8549 18.992 27.3809 19.382 26.7809 19.694C26.1809 20.006 25.4969 20.162 24.7289 20.162C23.8769 20.162 23.0969 19.946 22.3889 19.514C21.6809 19.07 21.1169 18.458 20.6969 17.678C20.2889 16.886 20.0849 15.992 20.0849 14.996ZM28.2029 15.032C28.2029 14.348 28.0589 13.754 27.7709 13.25C27.4949 12.746 27.1289 12.362 26.6729 12.098C26.2169 11.834 25.7249 11.702 25.1969 11.702C24.6689 11.702 24.1769 11.834 23.7209 12.098C23.2649 12.35 22.8929 12.728 22.6049 13.232C22.3289 13.724 22.1909 14.312 22.1909 14.996C22.1909 15.68 22.3289 16.28 22.6049 16.796C22.8929 17.312 23.2649 17.708 23.7209 17.984C24.1889 18.248 24.6809 18.38 25.1969 18.38C25.7249 18.38 26.2169 18.248 26.6729 17.984C27.1289 17.72 27.4949 17.336 27.7709 16.832C28.0589 16.316 28.2029 15.716 28.2029 15.032ZM44.9742 9.92C45.7542 9.92 46.4502 10.082 47.0622 10.406C47.6862 10.73 48.1722 11.21 48.5202 11.846C48.8802 12.482 49.0602 13.25 49.0602 14.15V20H47.0262V14.456C47.0262 13.568 46.8042 12.89 46.3602 12.422C45.9162 11.942 45.3102 11.702 44.5422 11.702C43.7742 11.702 43.1622 11.942 42.7062 12.422C42.2622 12.89 42.0402 13.568 42.0402 14.456V20H40.0062V14.456C40.0062 13.568 39.7842 12.89 39.3402 12.422C38.8962 11.942 38.2902 11.702 37.5222 11.702C36.7542 11.702 36.1422 11.942 35.6862 12.422C35.2422 12.89 35.0202 13.568 35.0202 14.456V20H32.9682V10.082H35.0202V11.216C35.3562 10.808 35.7822 10.49 36.2982 10.262C36.8142 10.034 37.3662 9.92 37.9542 9.92C38.7462 9.92 39.4542 10.088 40.0782 10.424C40.7022 10.76 41.1822 11.246 41.5182 11.882C41.8182 11.282 42.2862 10.808 42.9222 10.46C43.5582 10.1 44.2422 9.92 44.9742 9.92ZM50.9873 14.996C50.9873 14 51.1913 13.118 51.5993 12.35C52.0193 11.582 52.5833 10.988 53.2913 10.568C54.0113 10.136 54.8033 9.92 55.6673 9.92C56.4473 9.92 57.1253 10.076 57.7013 10.388C58.2893 10.688 58.7573 11.066 59.1053 11.522V10.082H61.1753V20H59.1053V18.524C58.7573 18.992 58.2833 19.382 57.6833 19.694C57.0833 20.006 56.3993 20.162 55.6313 20.162C54.7793 20.162 53.9993 19.946 53.2913 19.514C52.5833 19.07 52.0193 18.458 51.5993 17.678C51.1913 16.886 50.9873 15.992 50.9873 14.996ZM59.1053 15.032C59.1053 14.348 58.9613 13.754 58.6733 13.25C58.3973 12.746 58.0313 12.362 57.5753 12.098C57.1193 11.834 56.6273 11.702 56.0993 11.702C55.5713 11.702 55.0793 11.834 54.6233 12.098C54.1673 12.35 53.7953 12.728 53.5073 13.232C53.2313 13.724 53.0933 14.312 53.0933 14.996C53.0933 15.68 53.2313 16.28 53.5073 16.796C53.7953 17.312 54.1673 17.708 54.6233 17.984C55.0913 18.248 55.5833 18.38 56.0993 18.38C56.6273 18.38 57.1193 18.248 57.5753 17.984C58.0313 17.72 58.3973 17.336 58.6733 16.832C58.9613 16.316 59.1053 15.716 59.1053 15.032ZM63.1865 14.996C63.1865 14 63.3905 13.118 63.7985 12.35C64.2185 11.582 64.7825 10.988 65.4905 10.568C66.2105 10.136 67.0085 9.92 67.8845 9.92C68.5325 9.92 69.1685 10.064 69.7925 10.352C70.4285 10.628 70.9325 11 71.3045 11.468V6.68H73.3745V20H71.3045V18.506C70.9685 18.986 70.5005 19.382 69.9005 19.694C69.3125 20.006 68.6345 20.162 67.8665 20.162C67.0025 20.162 66.2105 19.946 65.4905 19.514C64.7825 19.07 64.2185 18.458 63.7985 17.678C63.3905 16.886 63.1865 15.992 63.1865 14.996ZM71.3045 15.032C71.3045 14.348 71.1605 13.754 70.8725 13.25C70.5965 12.746 70.2305 12.362 69.7745 12.098C69.3185 11.834 68.8265 11.702 68.2985 11.702C67.7705 11.702 67.2785 11.834 66.8225 12.098C66.3665 12.35 65.9945 12.728 65.7065 13.232C65.4305 13.724 65.2925 14.312 65.2925 14.996C65.2925 15.68 65.4305 16.28 65.7065 16.796C65.9945 17.312 66.3665 17.708 66.8225 17.984C67.2905 18.248 67.7825 18.38 68.2985 18.38C68.8265 18.38 69.3185 18.248 69.7745 17.984C70.2305 17.72 70.5965 17.336 70.8725 16.832C71.1605 16.316 71.3045 15.716 71.3045 15.032ZM81.1997 9.92C81.9557 9.92 82.6277 10.082 83.2157 10.406C83.8157 10.73 84.2837 11.21 84.6197 11.846C84.9677 12.482 85.1417 13.25 85.1417 14.15V20H83.1077V14.456C83.1077 13.568 82.8857 12.89 82.4417 12.422C81.9977 11.942 81.3917 11.702 80.6237 11.702C79.8557 11.702 79.2437 11.942 78.7877 12.422C78.3437 12.89 78.1217 13.568 78.1217 14.456V20H76.0697V6.68H78.1217V11.234C78.4697 10.814 78.9077 10.49 79.4357 10.262C79.9757 10.034 80.5637 9.92 81.1997 9.92ZM87.0752 14.996C87.0752 14 87.2792 13.118 87.6872 12.35C88.1072 11.582 88.6712 10.988 89.3792 10.568C90.0992 10.136 90.8912 9.92 91.7552 9.92C92.5352 9.92 93.2132 10.076 93.7892 10.388C94.3772 10.688 94.8452 11.066 95.1932 11.522V10.082H97.2632V20H95.1932V18.524C94.8452 18.992 94.3712 19.382 93.7712 19.694C93.1712 20.006 92.4872 20.162 91.7192 20.162C90.8672 20.162 90.0872 19.946 89.3792 19.514C88.6712 19.07 88.1072 18.458 87.6872 17.678C87.2792 16.886 87.0752 15.992 87.0752 14.996ZM95.1932 15.032C95.1932 14.348 95.0492 13.754 94.7612 13.25C94.4852 12.746 94.1192 12.362 93.6632 12.098C93.2072 11.834 92.7152 11.702 92.1872 11.702C91.6592 11.702 91.1672 11.834 90.7112 12.098C90.2552 12.35 89.8832 12.728 89.5952 13.232C89.3192 13.724 89.1812 14.312 89.1812 14.996C89.1812 15.68 89.3192 16.28 89.5952 16.796C89.8832 17.312 90.2552 17.708 90.7112 17.984C91.1792 18.248 91.6712 18.38 92.1872 18.38C92.7152 18.38 93.2072 18.248 93.6632 17.984C94.1192 17.72 94.4852 17.336 94.7612 16.832C95.0492 16.316 95.1932 15.716 95.1932 15.032ZM104.962 9.92C105.742 9.92 106.438 10.082 107.05 10.406C107.674 10.73 108.16 11.21 108.508 11.846C108.856 12.482 109.03 13.25 109.03 14.15V20H106.996V14.456C106.996 13.568 106.774 12.89 106.33 12.422C105.886 11.942 105.28 11.702 104.512 11.702C103.744 11.702 103.132 11.942 102.676 12.422C102.232 12.89 102.01 13.568 102.01 14.456V20H99.9584V10.082H102.01V11.216C102.346 10.808 102.772 10.49 103.288 10.262C103.816 10.034 104.374 9.92 104.962 9.92ZM115.572 15.05L120.144 20H117.372L113.7 15.734V20H111.648V6.68H113.7V14.42L117.3 10.082H120.144L115.572 15.05ZM130.597 10.082V20H128.545V18.83C128.221 19.238 127.795 19.562 127.267 19.802C126.751 20.03 126.199 20.144 125.611 20.144C124.831 20.144 124.129 19.982 123.505 19.658C122.893 19.334 122.407 18.854 122.047 18.218C121.699 17.582 121.525 16.814 121.525 15.914V10.082H123.559V15.608C123.559 16.496 123.781 17.18 124.225 17.66C124.669 18.128 125.275 18.362 126.043 18.362C126.811 18.362 127.417 18.128 127.861 17.66C128.317 17.18 128.545 16.496 128.545 15.608V10.082H130.597Z" fill="black" fill-opacity="0.9"/>
</svg>
