<svg width="211" height="144" viewBox="0 0 211 144" fill="none" xmlns="http://www.w3.org/2000/svg">
<ellipse cx="105" cy="106" rx="105" ry="5" fill="#A7EBC7"/>
<path fill-rule="evenodd" clip-rule="evenodd" d="M97 101.015C99.6805 101.005 102.389 101 105.122 101C163.112 101 210.122 103.239 210.122 106C210.122 107.334 199.147 108.546 181.262 109.443C215.178 105.512 155.375 102.61 97 101.015Z" fill="#60D396"/>
<path fill-rule="evenodd" clip-rule="evenodd" d="M113.122 111.428C110.442 111.438 107.733 111.443 105 111.443C47.01 111.443 -6.16137e-05 109.204 -6.16137e-05 106.443C-6.16137e-05 105.109 10.9748 103.897 28.8603 103C-5.05594 106.931 54.7466 109.833 113.122 111.428Z" fill="#60D396"/>
<path d="M20.3109 89.68V84.592L55.2549 37.552H63.2229V83.824H73.4949V89.68H63.2229V106H56.5989V89.68H20.3109ZM56.8869 44.944L28.0869 83.824H56.8869V44.944ZM82.1619 70.96C82.1619 59.952 83.8579 51.408 87.2499 45.328C90.6419 39.248 96.7219 36.208 105.49 36.208C114.258 36.208 120.338 39.248 123.73 45.328C127.122 51.408 128.818 59.952 128.818 70.96C128.818 82.16 127.122 90.832 123.73 96.976C120.338 103.12 114.258 106.192 105.49 106.192C96.6579 106.192 90.5459 103.12 87.1539 96.976C83.8259 90.832 82.1619 82.16 82.1619 70.96ZM122.194 70.96C122.194 65.008 121.778 59.984 120.946 55.888C120.114 51.792 118.482 48.496 116.05 46C113.618 43.504 110.098 42.256 105.49 42.256C100.882 42.256 97.3619 43.504 94.9299 46C92.4979 48.496 90.8659 51.792 90.0339 55.888C89.2019 59.984 88.7859 65.008 88.7859 70.96C88.7859 77.104 89.2019 82.256 90.0339 86.416C90.8659 90.512 92.4979 93.808 94.9299 96.304C97.3619 98.8 100.882 100.048 105.49 100.048C110.098 100.048 113.618 98.8 116.05 96.304C118.482 93.808 120.114 90.512 120.946 86.416C121.778 82.256 122.194 77.104 122.194 70.96ZM138.342 89.68V84.592L173.286 37.552H181.254V83.824H191.526V89.68H181.254V106H174.63V89.68H138.342ZM174.918 44.944L146.118 83.824H174.918V44.944Z" fill="#42B883"/>
</svg>
