<svg width="55" height="55" viewBox="0 0 55 55" fill="none" xmlns="http://www.w3.org/2000/svg">
<rect width="55" height="55" rx="5" fill="#50D890" fill-opacity="0.5"/>
<g clip-path="url(#clip0)">
<path d="M18.916 39.9721L24.8372 38.2847C24.689 38.2422 17.5384 36.1966 17.9785 36.3225V39.269C17.9785 39.5034 18.081 39.7085 18.2715 39.8549C18.4793 40.0165 18.6824 40.0189 18.916 39.9721Z" fill="white"/>
<path d="M36.7286 39.8549C36.919 39.7085 37.0215 39.5034 37.0215 39.2691V36.3227C36.8733 36.3651 29.7226 38.4106 30.1627 38.2847L36.084 39.9721C36.314 40.0182 36.5185 40.0185 36.7286 39.8549Z" fill="white"/>
<path d="M35.5566 15.7349C35.5566 15.2351 35.0668 14.882 34.5927 15.0401L28.2324 17.1598V29.9672C28.7373 29.4787 29.3491 29.0918 30.0478 28.8589L35.5566 27.0231C35.5566 24.5831 35.5566 18.1494 35.5566 15.7349Z" fill="white"/>
<path d="M26.7676 29.9675C26.7676 25.1002 26.7676 19.6486 26.7676 17.1598L20.4073 15.0401C19.9332 14.882 19.4434 15.235 19.4434 15.7349V27.0232L24.9522 28.8597C25.6509 29.0923 26.2627 29.4791 26.7676 29.9675Z" fill="white"/>
<path d="M39.0039 17.975L37.0215 18.7075V30.48C37.0215 30.7954 36.8198 31.0751 36.5208 31.1745L27.7317 34.1042C27.6566 34.1292 27.578 34.1421 27.5 34.1421C27.422 34.1421 27.3434 34.1292 27.2683 34.1042L18.4792 31.1745C18.1802 31.075 17.9785 30.7954 17.9785 30.48V18.7075L15.9961 17.975C15.7618 17.8871 15.5126 17.9311 15.3222 18.0629C15.1172 18.1948 15 18.4291 15 18.6636V33.4097C15 33.7319 15.2198 34.0248 15.5273 34.1127C15.8785 34.2125 15.6649 34.151 15.5699 34.1236C15.8464 34.2028 17.9027 34.7784 27.499 37.5256C27.5136 37.5217 27.5366 37.5157 27.499 37.5256C27.4993 37.5257 27.4997 37.5258 27.5 37.5258C28.7198 37.1752 28.4237 37.2752 39.4727 34.1127C39.7803 34.0248 40 33.7318 40 33.4096V18.6635C40 18.4291 39.8828 18.1948 39.6778 18.0629C39.4874 17.9311 39.2382 17.8871 39.0039 17.975ZM15.5512 34.1183C15.5289 34.1119 15.5242 34.1105 15.5512 34.1183V34.1183Z" fill="white"/>
<path d="M27.4984 37.5256C27.4984 37.5256 27.4983 37.5256 27.4984 37.5256V37.5256Z" fill="white"/>
<path d="M19.4434 29.9521L26.5867 32.3334C26.2575 31.3677 25.4969 30.5843 24.4888 30.2489L19.4434 28.5663V29.9521Z" fill="white"/>
<path d="M28.4133 32.3334L35.5567 29.9521V28.5662L30.5112 30.2482C29.5031 30.5841 28.7425 31.3676 28.4133 32.3334Z" fill="white"/>
</g>
<defs>
<clipPath id="clip0">
<rect x="15" y="15" width="25" height="25" fill="white"/>
</clipPath>
</defs>
</svg>
