<svg width="20" height="20" viewBox="0 0 20 20" fill="none" xmlns="http://www.w3.org/2000/svg">
<g clip-path="url(#clip0)">
<path d="M9.21889 11.2094L18.0041 18.1871C18.4304 18.4018 18.9391 18.3785 19.3453 18.1321C19.7536 17.8867 20 17.4488 20 16.9792L20 3.01968C20 2.55112 19.7536 2.11429 19.3453 1.86785C19.1253 1.73458 18.8757 1.66689 18.6229 1.66689C18.4103 1.66689 18.1987 1.71554 18.0031 1.81285L9.21783 8.79259C8.79475 9.19029 8.46052 9.48856 8.46052 10.0015C8.46052 10.5145 8.74504 10.7906 9.21889 11.2094Z" fill="#4C4C4C"/>
<path d="M0.678405 11.2094L9.46364 18.1871C9.88989 18.4018 10.3997 18.3785 10.8059 18.1321C11.2141 17.8867 11.4606 17.4488 11.4606 16.9792L11.4606 3.01968C11.4606 2.55112 11.2141 2.11429 10.8059 1.86785C10.5859 1.73458 10.3362 1.66689 10.0834 1.66689C9.87085 1.66689 9.65931 1.71554 9.46364 1.81285L0.678405 8.79259C0.255326 9.19029 -0.0789061 9.48856 -0.0789061 10.0015C-0.0789061 10.5145 0.204556 10.7906 0.678405 11.2094Z" fill="#4C4C4C"/>
</g>
<defs>
<clipPath id="clip0">
<rect width="20" height="20" fill="white" transform="translate(20 20) rotate(-180)"/>
</clipPath>
</defs>
</svg>
