<svg width="23" height="23" viewBox="0 0 23 23" fill="none" xmlns="http://www.w3.org/2000/svg">
<path d="M11.5 0C5.15865 0 0 5.15865 0 11.5C0 17.8414 5.15865 23 11.5 23C17.8414 23 23 17.8414 23 11.5C23 5.15865 17.8414 0 11.5 0ZM17.3286 9.06299L11.0994 15.292C10.9125 15.4789 10.6672 15.573 10.4219 15.573C10.1766 15.573 9.93124 15.4789 9.74436 15.292L6.62984 12.1775C6.25502 11.8029 6.25502 11.1971 6.62984 10.8225C7.00448 10.4477 7.61005 10.4477 7.98486 10.8225L10.4219 13.2595L15.9736 7.70796C16.3482 7.33315 16.9538 7.33315 17.3286 7.70796C17.7033 8.0826 17.7033 8.68817 17.3286 9.06299Z" fill="#42B883"/>
</svg>
