<svg width="25" height="25" viewBox="0 0 25 25" fill="none" xmlns="http://www.w3.org/2000/svg">
<g clip-path="url(#clip0)">
<path d="M21.215 17.7651C21.662 17.7666 22.0249 17.4052 22.0249 16.9586V2.41928C22.0249 1.08313 20.9418 0 19.6056 0H5.39239C4.05624 0 2.97311 1.08313 2.97311 2.41928V22.5799C2.97311 23.9161 4.05624 24.9992 5.39239 24.9992H13.9844C14.4309 24.9992 14.7923 24.6363 14.7908 24.1892C14.7878 23.4473 14.7923 21.9302 14.7923 18.7408C14.7923 18.2025 15.2283 17.7666 15.7666 17.7666C18.9555 17.7666 20.4731 17.762 21.215 17.7651ZM12.6522 5.14096H17.9948C18.4402 5.14096 18.8012 5.50204 18.8012 5.94739C18.8012 6.39274 18.4402 6.75381 17.9948 6.75381H12.6522C12.2068 6.75381 11.8458 6.39274 11.8458 5.94739C11.8458 5.50204 12.2068 5.14096 12.6522 5.14096ZM10.2992 18.4628L8.15712 20.6049C7.84216 20.9198 7.33159 20.9198 7.01663 20.6049L6.28581 19.8741C5.9709 19.5591 5.9709 19.0485 6.28581 18.7336C6.60077 18.4187 7.11134 18.4187 7.4263 18.7336L7.58688 18.8942L9.1587 17.3223C9.47366 17.0074 9.98423 17.0074 10.2992 17.3223C10.6141 17.6373 10.6141 18.1479 10.2992 18.4628ZM10.2992 11.9106L8.15712 14.0527C7.84216 14.3676 7.33159 14.3676 7.01663 14.0527L6.28581 13.3218C5.9709 13.0069 5.9709 12.4963 6.28581 12.1814C6.60077 11.8665 7.11134 11.8665 7.4263 12.1814L7.58688 12.342L9.1587 10.7701C9.47366 10.4552 9.98423 10.4552 10.2992 10.7701C10.6141 11.0851 10.6141 11.5956 10.2992 11.9106ZM10.2992 5.3584L8.15712 7.50046C7.84216 7.81537 7.33159 7.81537 7.01663 7.50046L6.28581 6.76964C5.9709 6.45468 5.9709 5.94411 6.28581 5.62915C6.60077 5.31424 7.11134 5.31424 7.4263 5.62915L7.58688 5.78978L9.1587 4.21791C9.47366 3.903 9.98423 3.903 10.2992 4.21791C10.6141 4.53287 10.6141 5.04344 10.2992 5.3584ZM13.0554 19.8582H12.6522C12.2068 19.8582 11.8458 19.4972 11.8458 19.0518C11.8458 18.6065 12.2068 18.2454 12.6522 18.2454H13.0554C13.5008 18.2454 13.8619 18.6065 13.8619 19.0518C13.8619 19.4972 13.5008 19.8582 13.0554 19.8582ZM12.6522 13.306C12.2068 13.306 11.8458 12.9449 11.8458 12.4996C11.8458 12.0542 12.2068 11.6932 12.6522 11.6932H17.9948C18.4402 11.6932 18.8012 12.0542 18.8012 12.4996C18.8012 12.9449 18.4402 13.306 17.9948 13.306H12.6522ZM21.7885 19.8235L16.8492 24.7628C16.3411 25.2707 15.4727 24.9083 15.4727 24.1928V19.2534C15.4727 18.8079 15.8336 18.447 16.2791 18.447H21.2185C21.9247 18.447 22.3036 19.3081 21.7885 19.8235Z" fill="url(#paint0_linear)"/>
</g>
<defs>
<linearGradient id="paint0_linear" x1="12.5" y1="0" x2="12.5" y2="25" gradientUnits="userSpaceOnUse">
<stop stop-color="#42B883"/>
<stop offset="1" stop-color="#A7EBC7"/>
</linearGradient>
<clipPath id="clip0">
<rect width="25" height="25" fill="white"/>
</clipPath>
</defs>
</svg>
