<svg width="15" height="15" viewBox="0 0 15 15" fill="none" xmlns="http://www.w3.org/2000/svg">
<g clip-path="url(#clip0)">
<path d="M12.729 10.659C12.9972 10.6599 13.215 10.4431 13.215 10.1752V1.45157C13.215 0.649878 12.5651 0 11.7634 0H3.23544C2.43375 0 1.78387 0.649878 1.78387 1.45157V13.5479C1.78387 14.3496 2.43375 14.9995 3.23544 14.9995H8.39062C8.65855 14.9995 8.87538 14.7818 8.87447 14.5135C8.87266 14.0684 8.87538 13.1581 8.87538 11.2445C8.87538 10.9215 9.13696 10.6599 9.45994 10.6599C11.3733 10.6599 12.2838 10.6572 12.729 10.659ZM7.59135 3.08458H10.7969C11.0641 3.08458 11.2807 3.30122 11.2807 3.56843C11.2807 3.83564 11.0641 4.05229 10.7969 4.05229H7.59135C7.32411 4.05229 7.10749 3.83564 7.10749 3.56843C7.10749 3.30122 7.32411 3.08458 7.59135 3.08458ZM6.17952 11.0777L4.89428 12.3629C4.7053 12.5519 4.39896 12.5519 4.20999 12.3629L3.77149 11.9244C3.58255 11.7355 3.58255 11.4291 3.77149 11.2401C3.96047 11.0512 4.26681 11.0512 4.45578 11.2401L4.55213 11.3365L5.49523 10.3934C5.6842 10.2044 5.99054 10.2044 6.17952 10.3934C6.36846 10.5824 6.36846 10.8887 6.17952 11.0777ZM6.17952 7.14636L4.89428 8.4316C4.7053 8.62055 4.39896 8.62055 4.20999 8.4316L3.77149 7.99311C3.58255 7.80413 3.58255 7.49779 3.77149 7.30882C3.96047 7.11987 4.26681 7.11987 4.45578 7.30882L4.55213 7.40519L5.49523 6.46207C5.6842 6.27312 5.99054 6.27312 6.17952 6.46207C6.36846 6.65105 6.36846 6.95739 6.17952 7.14636ZM6.17952 3.21504L4.89428 4.50028C4.7053 4.68922 4.39896 4.68922 4.20999 4.50028L3.77149 4.06178C3.58255 3.87281 3.58255 3.56647 3.77149 3.37749C3.96047 3.18855 4.26681 3.18855 4.45578 3.37749L4.55213 3.47387L5.49523 2.53074C5.6842 2.3418 5.99054 2.3418 6.17952 2.53074C6.36846 2.71972 6.36846 3.02606 6.17952 3.21504ZM7.83328 11.9149H7.59135C7.32411 11.9149 7.10749 11.6983 7.10749 11.4311C7.10749 11.1639 7.32411 10.9472 7.59135 10.9472H7.83328C8.10052 10.9472 8.31713 11.1639 8.31713 11.4311C8.31713 11.6983 8.10052 11.9149 7.83328 11.9149ZM7.59135 7.98361C7.32411 7.98361 7.10749 7.76697 7.10749 7.49976C7.10749 7.23255 7.32411 7.0159 7.59135 7.0159H10.7969C11.0641 7.0159 11.2807 7.23255 11.2807 7.49976C11.2807 7.76697 11.0641 7.98361 10.7969 7.98361H7.59135ZM13.0731 11.8941L10.1095 14.8577C9.80465 15.1624 9.28363 14.945 9.28363 14.5157V11.552C9.28363 11.2847 9.50016 11.0682 9.76749 11.0682H12.7311C13.1548 11.0682 13.3822 11.5849 13.0731 11.8941Z" fill="url(#paint0_linear)"/>
</g>
<defs>
<linearGradient id="paint0_linear" x1="7.50003" y1="0" x2="7.50003" y2="15" gradientUnits="userSpaceOnUse">
<stop stop-color="#DEDEDE"/>
<stop offset="1" stop-color="#F7F7F7"/>
</linearGradient>
<clipPath id="clip0">
<rect width="15" height="15" fill="white"/>
</clipPath>
</defs>
</svg>
