<svg width="30" height="30" viewBox="0 0 30 30" fill="none" xmlns="http://www.w3.org/2000/svg">
<rect width="30" height="30" rx="2" fill="#A7EBC7"/>
<g clip-path="url(#clip0)">
<path d="M8.26557 6H7.21089V7.21092H6V8.26561H8.26557V6Z" fill="#42B883"/>
<path d="M22.7888 7.21092V6H21.7341V8.26561H23.9997V7.21092H22.7888Z" fill="#42B883"/>
<path d="M22.7894 20.3633V9.6367H22.262C21.2153 9.6367 20.3636 8.78508 20.3636 7.73827V7.21092H9.63696V7.73827C9.63696 8.78508 8.78534 9.6367 7.73853 9.6367H7.21118V20.3633H7.73853C8.78534 20.3633 9.63696 21.2149 9.63696 22.2617V22.7891H20.3636V22.2617C20.3636 21.2149 21.2153 20.3633 22.262 20.3633H22.7894ZM17.9468 18.4435C17.9468 19.401 17.1679 20.18 16.2103 20.18C15.7394 20.18 15.3121 19.9926 14.9989 19.6885C14.686 19.9925 14.2592 20.18 13.7896 20.18C12.8296 20.18 12.0506 19.401 12.0506 18.4435L12.0527 14.117C12.0527 13.7413 11.7469 13.4355 11.3709 13.4355C10.9925 13.4355 10.6867 13.7413 10.6867 14.1173V15.8438H9.63197V14.1173C9.63197 13.1598 10.4109 12.3808 11.3684 12.3808C12.3285 12.3808 13.1074 13.1597 13.1074 14.1173L13.1053 18.4438C13.1053 18.8195 13.4112 19.1253 13.7871 19.1253C14.1655 19.1253 14.4714 18.8195 14.4714 18.4435V12.4004H15.5261V18.4435C15.5261 18.8194 15.8319 19.1253 16.2078 19.1253C16.5863 19.1253 16.8922 18.8195 16.8922 18.4435V12.4004H17.9468V18.4435H17.9468ZM16.2114 11.5565C15.7404 11.5565 15.3131 11.3691 14.9999 11.065C14.687 11.369 14.2603 11.5565 13.7906 11.5565C12.8306 11.5565 12.0516 10.7775 12.0516 9.82001H13.1063C13.1063 10.1959 13.4122 10.5018 13.7881 10.5018C14.1666 10.5018 14.4724 10.196 14.4724 9.82001H15.5271C15.5271 10.1959 15.8329 10.5018 16.2089 10.5018C16.5873 10.5018 16.8932 10.196 16.8932 9.82001H17.9479C17.9479 10.7775 17.1689 11.5565 16.2114 11.5565ZM20.3676 18.6211H19.3129V12.4004H20.3676V18.6211Z" fill="#42B883"/>
<path d="M6.00024 22.7891H7.21113V24H8.26582V21.7343H6.00024V22.7891Z" fill="#42B883"/>
<path d="M21.7341 24H22.7888V22.7891H23.9997V21.7343H21.7341V24Z" fill="#42B883"/>
</g>
<defs>
<clipPath id="clip0">
<rect x="6" y="6" width="18" height="18" fill="white"/>
</clipPath>
</defs>
</svg>
