<svg width="20" height="20" viewBox="0 0 20 20" fill="none" xmlns="http://www.w3.org/2000/svg">
<path d="M10.7811 8.79057L1.99588 1.81294C1.56962 1.59822 1.06087 1.62149 0.654715 1.86794C0.246444 2.11332 0 2.55121 0 3.02083V16.9803C0 17.4489 0.246444 17.8857 0.654715 18.1322C0.874716 18.2654 1.12433 18.3331 1.37712 18.3331C1.58972 18.3331 1.80126 18.2845 1.99693 18.1872L10.7822 11.2074C11.2052 10.8097 11.5395 10.5114 11.5395 9.99846C11.5395 9.48547 11.255 9.20942 10.7811 8.79057Z" fill="#4C4C4C"/>
<path d="M19.2427 8.79057L10.4575 1.81294C10.0313 1.59822 9.52144 1.62149 9.11529 1.86794C8.70701 2.11332 8.46057 2.55121 8.46057 3.02083V16.9803C8.46057 17.4489 8.70701 17.8857 9.11529 18.1322C9.33529 18.2654 9.5849 18.3331 9.83769 18.3331C10.0503 18.3331 10.2618 18.2845 10.4575 18.1872L19.2427 11.2074C19.6658 10.8097 20 10.5114 20 9.99846C20 9.48547 19.7166 9.20942 19.2427 8.79057Z" fill="#4C4C4C"/>
</svg>
