<svg width="15" height="15" viewBox="0 0 15 15" fill="none" xmlns="http://www.w3.org/2000/svg">
<g clip-path="url(#clip0)">
<path d="M14.8627 6.93294L9.03314 1.10309C8.18762 0.257871 6.81241 0.257871 5.9669 1.10309L0.137346 6.93294C-0.0457616 7.11604 -0.0457616 7.41282 0.137346 7.59593C0.32016 7.77904 0.617234 7.77904 0.800048 7.59593L1.17183 7.22415V13.1832C1.17183 13.9275 1.7752 14.5309 2.5195 14.5309H4.86327C5.02508 14.5309 5.15625 14.3997 5.15625 14.2379V9.90191C5.15625 9.0929 5.81209 8.43705 6.6211 8.43705H8.37893C9.18795 8.43705 9.84379 9.0929 9.84379 9.90191V14.2379C9.84379 14.3997 9.97496 14.5309 10.1368 14.5309H12.4805C13.2248 14.5309 13.8282 13.9275 13.8282 13.1832V7.22415L14.2 7.59593C14.2914 7.68734 14.4115 7.73333 14.5313 7.73333C14.6512 7.73333 14.7713 7.68734 14.8627 7.59593C15.0458 7.41282 15.0458 7.11604 14.8627 6.93294Z" fill="url(#paint0_linear)"/>
</g>
<defs>
<linearGradient id="paint0_linear" x1="7.50002" y1="0.469177" x2="7.50002" y2="14.5309" gradientUnits="userSpaceOnUse">
<stop stop-color="#DEDEDE"/>
<stop offset="1" stop-color="#F7F7F7"/>
</linearGradient>
<clipPath id="clip0">
<rect width="15" height="15" fill="white"/>
</clipPath>
</defs>
</svg>
