<svg width="36" height="27" viewBox="0 0 36 27" fill="none" xmlns="http://www.w3.org/2000/svg">
<path fill-rule="evenodd" clip-rule="evenodd" d="M25.5313 3.35297H27.7774C29.5544 3.35297 31 4.79861 31 6.57562V10.2887L31.1964 10.0923C32.2224 9.06407 33.2304 9.34195 33.7816 9.8932L35.1733 11.2848C35.9416 12.0521 35.9416 13.3008 35.1733 14.0692L31 18.2425V23.1772C31 24.9542 29.5544 26.3998 27.7774 26.3998H9.22269C7.44568 26.3998 6.00003 24.9542 6.00003 23.1772V6.57562C6.00003 4.79861 7.44568 3.35297 9.22269 3.35297H11.4688V2.18109C11.4688 1.74965 11.8185 1.39984 12.25 1.39984C12.6815 1.39984 13.0313 1.74965 13.0313 2.18109V3.35297H23.9688V2.18109C23.9688 1.74965 24.3185 1.39984 24.75 1.39984C25.1815 1.39984 25.5313 1.74965 25.5313 2.18109V3.35297ZM29.4375 11.851L22.8433 18.4444C22.7218 18.567 22.6385 18.7245 22.6093 18.8943L22.013 22.275C21.9647 22.5472 22.0524 22.824 22.247 23.0186C22.4057 23.1784 22.6217 23.2661 22.8433 23.2661C22.8917 23.2661 22.9412 23.2616 22.9895 23.2526L26.3702 22.6564C26.5412 22.6271 26.6987 22.545 26.8202 22.4223L29.4375 19.805V23.1772C29.4375 24.0941 28.6943 24.8373 27.7774 24.8373H9.22269C8.30579 24.8373 7.56253 24.0941 7.56253 23.1772V10.2377C7.56253 10.1029 7.67186 9.99359 7.80667 9.99359H29.1934C29.3282 9.99359 29.4375 10.1029 29.4375 10.2377V11.851Z" fill="url(#paint0_linear)"/>
<defs>
<linearGradient id="paint0_linear" x1="20.8748" y1="1.39984" x2="20.8748" y2="26.3998" gradientUnits="userSpaceOnUse">
<stop stop-color="#42B883"/>
<stop offset="1" stop-color="#A7EBC7"/>
</linearGradient>
</defs>
</svg>
