<svg width="20" height="15" viewBox="0 0 20 15" fill="none" xmlns="http://www.w3.org/2000/svg">
<path fill-rule="evenodd" clip-rule="evenodd" d="M14.1841 1.86278H15.4319C16.4191 1.86278 17.2223 2.66592 17.2223 3.65314V5.71594L17.3313 5.60687C17.9013 5.03562 18.4613 5.18999 18.7676 5.49624L19.5407 6.26937C19.9676 6.69562 19.9676 7.38937 19.5407 7.81625L17.2223 10.1347V12.8762C17.2223 13.8635 16.4191 14.6666 15.4319 14.6666H5.12374C4.13652 14.6666 3.33337 13.8635 3.33337 12.8762V3.65314C3.33337 2.66592 4.13652 1.86278 5.12374 1.86278H6.37157V1.21174C6.37157 0.972046 6.56588 0.77771 6.8056 0.77771C7.04532 0.77771 7.23962 0.972046 7.23962 1.21174V1.86278H13.316V1.21174C13.316 0.972046 13.5103 0.77771 13.75 0.77771C13.9898 0.77771 14.1841 0.972046 14.1841 1.21174V1.86278ZM16.3542 6.58388L12.6907 10.2469C12.6232 10.315 12.577 10.4025 12.5607 10.4969L12.2295 12.375C12.2026 12.5263 12.2514 12.68 12.3595 12.7881C12.4476 12.8769 12.5676 12.9256 12.6907 12.9256C12.7176 12.9256 12.7451 12.9231 12.772 12.9181L14.6501 12.5869C14.7451 12.5706 14.8326 12.525 14.9001 12.4569L16.3542 11.0028V12.8762C16.3542 13.3856 15.9413 13.7985 15.4319 13.7985H5.12374C4.61435 13.7985 4.20143 13.3856 4.20143 12.8762V5.68765C4.20143 5.61275 4.26217 5.55202 4.33706 5.55202H16.2186C16.2935 5.55202 16.3542 5.61275 16.3542 5.68765V6.58388Z" fill="#42B883"/>
</svg>
