<svg width="20" height="15" viewBox="0 0 20 15" fill="none" xmlns="http://www.w3.org/2000/svg">
<path fill-rule="evenodd" clip-rule="evenodd" d="M14.184 1.86278H15.4319C16.4191 1.86278 17.2222 2.66592 17.2222 3.65314V5.71594L17.3313 5.60687C17.9013 5.03561 18.4613 5.18999 18.7676 5.49625L19.5407 6.26938C19.9676 6.69562 19.9676 7.38937 19.5407 7.81625L17.2222 10.1347V12.8762C17.2222 13.8635 16.4191 14.6666 15.4319 14.6666H5.12371C4.13648 14.6666 3.33334 13.8635 3.33334 12.8762V3.65314C3.33334 2.66592 4.13648 1.86278 5.12371 1.86278H6.37154V1.21173C6.37154 0.972046 6.56585 0.77771 6.80557 0.77771C7.04528 0.77771 7.23959 0.972046 7.23959 1.21173V1.86278H13.316V1.21173C13.316 0.972046 13.5103 0.77771 13.75 0.77771C13.9897 0.77771 14.184 0.972046 14.184 1.21173V1.86278ZM16.3542 6.58389L12.6907 10.2469C12.6232 10.315 12.577 10.4025 12.5607 10.4969L12.2295 12.375C12.2026 12.5263 12.2513 12.68 12.3595 12.7881C12.4476 12.8769 12.5676 12.9256 12.6907 12.9256C12.7176 12.9256 12.7451 12.9231 12.772 12.9181L14.6501 12.5869C14.7451 12.5706 14.8326 12.525 14.9001 12.4569L16.3542 11.0028V12.8762C16.3542 13.3856 15.9413 13.7985 15.4319 13.7985H5.12371C4.61432 13.7985 4.2014 13.3856 4.2014 12.8762V5.68765C4.2014 5.61275 4.26214 5.55202 4.33703 5.55202H16.2185C16.2934 5.55202 16.3542 5.61275 16.3542 5.68765V6.58389Z" fill="url(#paint0_linear)"/>
<defs>
<linearGradient id="paint0_linear" x1="11.5971" y1="0.77771" x2="11.5971" y2="14.6666" gradientUnits="userSpaceOnUse">
<stop stop-color="#DEDEDE"/>
<stop offset="1" stop-color="#F7F7F7"/>
</linearGradient>
</defs>
</svg>
