<svg width="70" height="70" viewBox="0 0 70 70" fill="none" xmlns="http://www.w3.org/2000/svg">
<path d="M35 70C54.33 70 70 54.33 70 35C70 15.67 54.33 0 35 0C15.67 0 0 15.67 0 35C0 54.33 15.67 70 35 70Z" fill="#87D7F5"/>
<path d="M27.9246 25.6044H25.5392H25.0365H22.5998H20.7057C19.6997 25.6044 18.8842 24.7889 18.8842 23.7829C18.8842 22.7769 18.0686 21.9614 17.0627 21.9614H9.95643C8.97561 21.9614 8.13164 22.7151 8.08557 23.6949C8.03635 24.7409 8.86979 25.6044 9.90502 25.6044H12.7731C13.7539 25.6044 14.5979 26.3581 14.644 27.3379C14.6932 28.3839 13.8598 29.2474 12.8245 29.2474H5.99159C5.01077 29.2474 4.1668 30.0011 4.12073 30.9809C4.07151 32.0269 4.90494 32.8904 5.94018 32.8904H23.2151C24.2211 32.8904 25.0366 32.0749 25.0366 31.0689C25.0366 30.0629 25.8522 29.2474 26.8582 29.2474H27.9761C29.0113 29.2474 29.8448 28.3839 29.7956 27.3379C29.7493 26.3581 28.9054 25.6044 27.9246 25.6044Z" fill="#BAEAF7"/>
<path d="M47.3553 2.24588H43.7255C42.7195 2.24588 41.904 3.06141 41.904 4.06738C41.904 5.07336 42.7195 5.88889 43.7255 5.88889H50.1105C51.1165 5.88889 51.932 6.70442 51.932 7.71039C51.932 8.71637 51.1165 9.5319 50.1105 9.5319H44.2108H35.1598C34.1538 9.5319 33.3383 10.3474 33.3383 11.3534C33.3383 12.3594 34.1538 13.1749 35.1598 13.1749H44.2108H51.6792C52.6852 13.1749 53.5007 13.9904 53.5007 14.9964C53.5007 16.0024 52.6852 16.8179 51.6792 16.8179H50.9121C49.9061 16.8179 49.0906 17.6334 49.0906 18.6394C49.0906 19.6454 49.9061 20.4609 50.9121 20.4609H66.845C63.0224 12.1017 56.0054 5.51045 47.3553 2.24588Z" fill="#BAEAF7"/>
<path d="M35 33.6232H32.0794H23.4259V53.3362C24.051 53.3362 45.8375 53.3362 46.574 53.3362V33.6232H35Z" fill="#EBE4DD"/>
<path d="M24.8926 33.6232H24.5225H23.4259V53.3362C24.4985 53.3362 25.2768 53.3362 26.3592 53.3362V33.6232H24.8926Z" fill="#D8CCBC"/>
<path d="M35 33.6232H32.0794H23.4259V37.3088C25.9948 37.3088 43.9699 37.3088 46.574 37.3088V33.6232H35Z" fill="#D8CCBC"/>
<path d="M26.3592 33.6232H24.8926H24.5225H23.4259V37.3088H26.3592V33.6232Z" fill="#C6B6A5"/>
<path d="M21.5112 35.4538C22.0987 35.4538 22.5749 35.93 22.5749 36.5174V39.7564C22.5749 40.3439 22.0987 40.8201 21.5112 40.8201C20.9238 40.8201 20.4476 40.3439 20.4476 39.7564V36.5174C20.4476 35.93 20.9238 35.4538 21.5112 35.4538Z" fill="#C6B6A5"/>
<path d="M16.5388 28.2817H12.7094V53.3367H16.5388V28.2817Z" fill="#EBE4DD"/>
<path d="M14.6234 28.2817H12.7094V53.3367H14.6234V28.2817Z" fill="#D8CCBC"/>
<path d="M23.4268 38.9648H19.5973V53.3353H23.4268V38.9648Z" fill="#C6B6A5"/>
<path d="M23.4268 45.9621H19.5973V53.3366H23.4268V45.9621Z" fill="#BFA993"/>
<path d="M23.4259 38.9651H19.5968C19.7548 38.0245 20.5516 37.3088 21.5114 37.3088C22.4712 37.3088 23.2677 38.0245 23.4259 38.9651Z" fill="#888889"/>
<path d="M14.6241 41.1275C15.2116 41.1275 15.6878 41.6036 15.6878 42.1911V45.4301C15.6878 46.0176 15.2116 46.4938 14.6241 46.4938C14.0366 46.4938 13.5604 46.0176 13.5604 45.4301V42.1911C13.5604 41.6036 14.0366 41.1275 14.6241 41.1275Z" fill="#C6B6A5"/>
<path d="M19.5959 48.1127H9.651V52.0647H19.5959V48.1127Z" fill="#D8CCBC"/>
<path d="M13.5601 48.1127H9.651V52.0647H13.5601V48.1127Z" fill="#C6B6A5"/>
<path d="M19.5967 48.1127H9.65137C10.0619 45.6695 12.1313 43.8106 14.624 43.8106C17.1166 43.8106 19.1861 45.6695 19.5967 48.1127Z" fill="#888889"/>
<path d="M16.5787 44.2148C15.9775 43.9548 15.3173 43.8107 14.6241 43.8107C12.1314 43.8107 10.0621 45.6695 9.65155 48.1128H13.5606C13.8569 46.3489 15.018 44.89 16.5787 44.2148Z" fill="#79797A"/>
<path d="M12.6766 36.2224H16.5543H17.4925C17.6722 36.2224 17.7982 36.3996 17.7393 36.5694L16.5299 40.0516H15.2243H14.0064H12.7009L11.5111 36.6259C11.4426 36.4286 11.5891 36.2225 11.7979 36.2225L12.6766 36.2224Z" fill="#D8CCBC"/>
<path d="M12.4968 49.3816C13.0843 49.3816 13.5604 49.8578 13.5604 50.4453V52.0647H11.4331V50.4453C11.4331 49.8578 11.9093 49.3816 12.4968 49.3816Z" fill="#BFA993"/>
<path d="M16.7513 49.3816C17.3388 49.3816 17.815 49.8578 17.815 50.4453V52.0647H15.6876V50.4453C15.6878 49.8578 16.1638 49.3816 16.7513 49.3816Z" fill="#BFA993"/>
<path d="M48.4887 35.4538C47.9012 35.4538 47.425 35.93 47.425 36.5174V39.7564C47.425 40.3439 47.9012 40.8201 48.4887 40.8201C49.0761 40.8201 49.5523 40.3439 49.5523 39.7564V36.5174C49.5523 35.93 49.0761 35.4538 48.4887 35.4538Z" fill="#C6B6A5"/>
<path d="M34.929 18.9678C34.3415 18.9678 33.8653 19.444 33.8653 20.0315V23.2705C33.8653 23.858 34.3415 24.3342 34.929 24.3342C35.5164 24.3342 35.9926 23.858 35.9926 23.2705V20.0315C35.9926 19.444 35.5166 18.9678 34.929 18.9678Z" fill="#79797A"/>
<path d="M23.8855 33.6232H45.9727C45.0608 28.3478 40.4651 24.334 34.9291 24.334C29.3931 24.334 24.7974 28.3478 23.8855 33.6232Z" fill="#888889"/>
<path d="M26.1639 33.6232H43.8361C43.1065 28.3478 39.4294 24.334 35 24.334C30.5706 24.334 26.8935 28.3478 26.1639 33.6232Z" fill="#79797A"/>
<path d="M28.5209 33.6232H41.479C40.944 28.3478 38.2477 24.334 34.9998 24.334C31.7521 24.334 29.056 28.3478 28.5209 33.6232Z" fill="#888889"/>
<path d="M30.7916 33.6232H39.0665C38.7249 28.3478 37.0032 24.334 34.929 24.334C32.855 24.334 31.1333 28.3478 30.7916 33.6232Z" fill="#79797A"/>
<path d="M33.4297 33.6232H36.5705C36.4408 28.3478 35.7873 24.334 35.0001 24.334C34.2129 24.334 33.5594 28.3478 33.4297 33.6232Z" fill="#888889"/>
<path d="M35.0001 38.6355C30.6649 38.6697 27.0748 41.8228 26.3593 45.9617C29.7214 45.9617 39.4887 45.9617 43.6408 45.9617C42.9254 41.8228 39.3353 38.6698 35.0001 38.6355Z" fill="#888889"/>
<path d="M36.6614 38.8063C36.1235 38.6993 35.5684 38.64 35.0001 38.6355C30.6649 38.6697 27.0748 41.8228 26.3593 45.9616H29.6819C30.3035 42.3653 33.096 39.5147 36.6614 38.8063Z" fill="#79797A"/>
<path d="M46.6063 34.6869H23.2519C22.6644 34.6869 22.1882 34.2107 22.1882 33.6232C22.1882 33.0358 22.6644 32.5596 23.2519 32.5596H46.6065C47.1939 32.5596 47.6701 33.0358 47.6701 33.6232C47.67 34.2107 47.1938 34.6869 46.6063 34.6869Z" fill="#C6B6A5"/>
<path d="M25.4501 33.6232C25.4501 33.0358 25.9261 32.5596 26.5137 32.5596H23.2519C22.6644 32.5596 22.1882 33.0358 22.1882 33.6232C22.1882 34.2107 22.6644 34.6869 23.2519 34.6869H26.5137C25.9261 34.6869 25.4501 34.2107 25.4501 33.6232Z" fill="#BFA993"/>
<path d="M57.2906 28.2817H53.4611V53.3367H57.2906V28.2817Z" fill="#EBE4DD"/>
<path d="M55.3752 28.2817H53.4611V53.3367H55.3752V28.2817Z" fill="#D8CCBC"/>
<path d="M16.5388 28.2817H12.7094V31.2936H16.5388V28.2817Z" fill="#D8CCBC"/>
<path d="M14.6234 28.2817H12.7094V31.2936H14.6234V28.2817Z" fill="#C6B6A5"/>
<path d="M57.2906 28.2817H53.4611V31.2936H57.2906V28.2817Z" fill="#D8CCBC"/>
<path d="M55.3751 28.2817H53.4611V31.2936H55.3751V28.2817Z" fill="#C6B6A5"/>
<path d="M50.4041 38.9648H46.5746V53.3353H50.4041V38.9648Z" fill="#D8CCBC"/>
<path d="M50.4041 45.9621H46.5746V53.3366H50.4041V45.9621Z" fill="#C6B6A5"/>
<path d="M26.3593 45.9617V53.3362C31.8396 53.3362 38.1606 53.3362 43.6408 53.3362V45.9617C41.0902 45.9617 29.0513 45.9617 26.3593 45.9617Z" fill="#D8CCBC"/>
<path d="M26.3593 45.9617V53.3362C27.5313 53.3362 28.5185 53.3362 29.6818 53.3362V45.9617C28.5304 45.9617 27.6006 45.9617 26.3593 45.9617Z" fill="#C6B6A5"/>
<path d="M64.9487 52.0647C63.2313 52.0647 6.65902 52.0647 5.05121 52.0647V53.1221C9.14142 59.8672 15.4459 65.1202 22.9566 67.8728C24.2895 67.8728 45.7039 67.8728 47.0434 67.8728C54.5541 65.1204 60.8584 59.8672 64.9487 53.1221V52.0647Z" fill="#EBE4DD"/>
<path d="M19.5967 52.0647H5.05121V53.1221C8.51553 58.8349 13.5684 63.4767 19.5967 66.4362V52.0647Z" fill="#D8CCBC"/>
<path d="M5.05121 52.0647V53.1221C5.59945 54.0261 6.18871 54.9023 6.81406 55.7502C9.8309 55.7502 60.1187 55.7502 63.1859 55.7502C63.8113 54.9023 64.4005 54.0261 64.9488 53.1221V52.0647C63.2313 52.0647 6.65916 52.0647 5.05121 52.0647Z" fill="#D8CCBC"/>
<path d="M19.5967 52.0647H5.05121V53.1221C5.59945 54.0261 6.18871 54.9023 6.81406 55.7502H19.5967V52.0647V52.0647Z" fill="#C6B6A5"/>
<path d="M46.5741 38.9651H50.4032C50.2451 38.0245 49.4483 37.3088 48.4886 37.3088C47.5288 37.3088 46.7323 38.0245 46.5741 38.9651Z" fill="#888889"/>
<path d="M33.0144 24.4971H36.8435C36.6854 23.5565 35.8886 22.8408 34.9289 22.8408C33.9691 22.8408 33.1726 23.5565 33.0144 24.4971Z" fill="#CBD0D1"/>
<path d="M35.9889 23.1663C35.6839 22.9615 35.3206 22.8408 34.929 22.8408C33.9693 22.8408 33.1726 23.5565 33.0144 24.4971H35.1341C35.2278 23.9401 35.5463 23.4637 35.9889 23.1663Z" fill="#B3BBBC"/>
<path d="M55.3759 41.1275C54.7884 41.1275 54.3122 41.6036 54.3122 42.1911V45.4301C54.3122 46.0176 54.7884 46.4938 55.3759 46.4938C55.9633 46.4938 56.4395 46.0176 56.4395 45.4301V42.1911C56.4395 41.6036 55.9633 41.1275 55.3759 41.1275Z" fill="#C6B6A5"/>
<path d="M60.3476 48.1127H50.4027V52.0647H60.3476V48.1127Z" fill="#D8CCBC"/>
<path d="M54.3118 48.1127H50.4027V52.0647H54.3118V48.1127Z" fill="#C6B6A5"/>
<path d="M50.4032 48.1127H60.3485C59.938 45.6695 57.8686 43.8106 55.3758 43.8106C52.8831 43.8107 50.8138 45.6695 50.4032 48.1127Z" fill="#888889"/>
<path d="M57.3303 44.2148C56.7292 43.9548 56.069 43.8107 55.3758 43.8107C52.8831 43.8107 50.8138 45.6695 50.4032 48.1128H54.3123C54.6087 46.3489 55.7697 44.89 57.3303 44.2148Z" fill="#79797A"/>
<path d="M57.3234 36.2224H53.4456H52.5075C52.3278 36.2224 52.2018 36.3996 52.2607 36.5694L53.4701 40.0516H54.7756H55.9935H57.299L58.4889 36.6259C58.5574 36.4286 58.411 36.2225 58.2021 36.2225L57.3234 36.2224Z" fill="#D8CCBC"/>
<path d="M55.4242 36.2224H53.4457H52.5074C52.3278 36.2224 52.2017 36.3996 52.2606 36.5693L53.4699 40.0515H54.7754H55.9933H56.3867L55.1774 36.5693C55.1185 36.3996 55.2445 36.2224 55.4242 36.2224Z" fill="#C6B6A5"/>
<path d="M57.5032 49.3816C56.9158 49.3816 56.4396 49.8578 56.4396 50.4453V52.0647H58.5669V50.4453C58.5669 49.8578 58.0907 49.3816 57.5032 49.3816Z" fill="#BFA993"/>
<path d="M53.2486 49.3816C52.6611 49.3816 52.1849 49.8578 52.1849 50.4453V52.0647H54.3122V50.4453C54.3122 49.8578 53.8362 49.3816 53.2486 49.3816Z" fill="#BFA993"/>
<path d="M24.4062 59.0914C22.9492 59.0914 21.7684 60.2722 21.7684 61.7292V65.7455H27.0439V61.7292C27.0439 60.2722 25.8632 59.0914 24.4062 59.0914Z" fill="#BFA993"/>
<path d="M25.7251 59.4471C25.3369 59.2222 24.8873 59.0913 24.4062 59.0913C22.9492 59.0913 21.7684 60.2722 21.7684 61.7292V65.7454H24.4062V61.7292C24.4062 60.7532 24.9374 59.9032 25.7251 59.4471Z" fill="#AA927D"/>
<path d="M35 47.5379C34.4125 47.5379 33.9363 48.0141 33.9363 48.6016V52.0647H36.0637V48.6016C36.0637 48.0141 35.5875 47.5379 35 47.5379Z" fill="#BFA993"/>
<path d="M30.7455 47.5379C30.158 47.5379 29.6818 48.0141 29.6818 48.6016V52.0647H31.8092V48.6016C31.8092 48.0141 31.333 47.5379 30.7455 47.5379Z" fill="#BFA993"/>
<path d="M39.2545 47.5379C38.667 47.5379 38.1909 48.0141 38.1909 48.6016V52.0647H40.3182V48.6016C40.3182 48.0141 39.842 47.5379 39.2545 47.5379Z" fill="#BFA993"/>
<path d="M1.22211 44.1823C2.08467 47.3628 3.38308 50.3638 5.05119 53.1161V21.9941H1.22211V44.1823Z" fill="#EBE4DD"/>
<path d="M3.13665 49.4905V21.9941H1.22205V44.1823C1.71929 46.016 2.36228 47.7895 3.13665 49.4905Z" fill="#D8CCBC"/>
<path d="M1.19709 33.267H5.07484H6.01301C6.19265 33.267 6.31871 33.4441 6.25978 33.6138L5.05037 37.096H3.74484H2.52695H1.22156L0.0316968 33.6703C-0.0367993 33.473 0.109626 33.267 0.318533 33.267H1.19709Z" fill="#D8CCBC"/>
<path d="M14.7033 36.2224H12.6766H11.7981C11.5892 36.2224 11.4426 36.4284 11.5112 36.6257L12.7011 40.0515H14.0066H15.2245H15.6064L14.4165 36.6257C14.348 36.4284 14.4946 36.2224 14.7033 36.2224Z" fill="#C6B6A5"/>
<path d="M3.22385 33.267H1.19714H0.318581C0.109674 33.267 -0.0368881 33.473 0.0317447 33.6703L1.22161 37.096H2.52714H3.74503H4.12688L2.93702 33.6703C2.86839 33.473 3.01495 33.267 3.22385 33.267Z" fill="#C6B6A5"/>
<path d="M5.92076 48.1742H5.07474H2.56677C3.10285 49.4926 3.71685 50.7708 4.40332 52.0033H5.05041L6.22947 48.6082C6.3033 48.3958 6.14566 48.1742 5.92076 48.1742Z" fill="#D8CCBC"/>
<path d="M64.9487 53.1162C66.6169 50.3639 67.9153 47.3631 68.7779 44.1824V21.9941H64.9487V53.1162Z" fill="#EBE4DD"/>
<path d="M66.8633 21.9941H64.9487V53.1162C65.6551 51.9507 66.2945 50.74 66.8633 49.4906V21.9941Z" fill="#D8CCBC"/>
<path d="M22.4256 65.7455H18.2628C19.7642 66.5646 21.3321 67.2774 22.9566 67.8728C24.9819 67.8728 48.2169 67.8728 47.0434 67.8728C48.6679 67.2774 50.2358 66.5647 51.7373 65.7455C47.9359 65.7455 25.582 65.7455 22.4256 65.7455Z" fill="#E0E2E2"/>
<path d="M22.9565 67.8727C26.7117 69.2489 30.768 70 35 70C39.2318 70 43.2883 69.2489 47.0434 67.8727C44.0622 67.8727 26.0806 67.8727 22.9565 67.8727Z" fill="#CBD0D1"/>
<path d="M68.8029 33.267H64.9252H63.987C63.8074 33.267 63.6813 33.4441 63.7402 33.6138L64.9497 37.096H66.255H67.4729H68.7785L69.9683 33.6703C70.0368 33.473 69.8904 33.267 69.6815 33.267H68.8029Z" fill="#D8CCBC"/>
<path d="M66.7651 33.267H64.9252H63.987C63.8074 33.267 63.6813 33.4441 63.7402 33.6138L64.9495 37.096H66.255H67.4729H67.7278L66.5184 33.6138C66.4594 33.4441 66.5855 33.267 66.7651 33.267Z" fill="#C6B6A5"/>
<path d="M64.9254 48.1742H64.0794C63.8545 48.1742 63.6968 48.396 63.7705 48.6083L64.9496 52.0034H65.5967C66.2831 50.7709 66.897 49.4927 67.4331 48.1744H64.9254V48.1742V48.1742Z" fill="#C6B6A5"/>
<path d="M14.624 18.9678C15.2115 18.9678 15.6876 19.444 15.6876 20.0315V20.3033V21.6387V21.935V23.2705V23.5423C15.6876 24.1298 15.2115 24.606 14.624 24.606C14.0365 24.606 13.5603 24.1298 13.5603 23.5423V23.2705V21.935V21.6387V20.3033V20.0315C13.5604 19.444 14.0365 18.9678 14.624 18.9678Z" fill="#79797A"/>
<path d="M11.8024 26.6794L13.5934 21.5225H15.6547L17.4459 26.6794C17.5883 26.8605 17.6741 27.0882 17.6741 27.3364C17.6741 27.9239 17.1979 28.4 16.6104 28.4H12.6379C12.0504 28.4 11.5742 27.9239 11.5742 27.3364C11.5742 27.0881 11.6598 26.8603 11.8024 26.6794Z" fill="#9DA4A5"/>
<path d="M15.2108 28.394C14.9547 28.3382 14.755 27.8861 14.755 27.3362C14.755 27.0881 14.796 26.8602 14.8642 26.6793L15.7001 21.6509L15.6555 21.5225H13.5942L11.8032 26.6794C11.6607 26.8603 11.575 27.0882 11.575 27.3364C11.575 27.9239 12.0512 28.4 12.6387 28.4H15.2108V28.394V28.394Z" fill="#888889"/>
<path d="M16.6104 28.4001H12.6377C12.0502 28.4001 11.574 27.9239 11.574 27.3364C11.574 27.0881 11.6598 26.8603 11.8022 26.6795H17.4457C17.5882 26.8605 17.6739 27.0882 17.6739 27.3364C17.674 27.9239 17.1978 28.4001 16.6104 28.4001Z" fill="#888889"/>
<path d="M11.8024 26.6793C11.6598 26.8603 11.574 27.0881 11.574 27.3362C11.574 27.7401 11.7991 28.0913 12.1306 28.2715C12.2813 28.3534 12.4541 28.3999 12.6377 28.3999H15.2098V28.3939C14.9537 28.3381 14.754 27.886 14.754 27.3361C14.754 27.088 14.795 26.8602 14.8632 26.6792H11.8024V26.6793Z" fill="#79797A"/>
<path d="M68.7777 21.9939H64.9482V25.0059H68.7777V21.9939Z" fill="#D8CCBC"/>
<path d="M66.8622 21.9939H64.9482V25.0059H66.8622V21.9939Z" fill="#C6B6A5"/>
<path d="M5.0516 21.9939H1.22211V25.0059H5.0516V21.9939Z" fill="#D8CCBC"/>
<path d="M3.13617 21.9939H1.22211V25.0059H3.13617V21.9939Z" fill="#C6B6A5"/>
<path d="M66.887 10.8139C66.2995 10.8139 65.8233 11.2901 65.8233 11.8776V13.4848V15.1166V16.7239C65.8233 17.3113 66.2995 17.7875 66.887 17.7875C67.4745 17.7875 67.9506 17.3113 67.9506 16.7239V15.1166V13.4848V11.8776C67.9506 11.2901 67.4746 10.8139 66.887 10.8139Z" fill="#79797A"/>
<path d="M69.7086 20.2735L67.9176 15.1166H65.8563L64.0652 20.2735C63.9227 20.4545 63.837 20.6823 63.837 20.9304C63.837 21.5179 64.3132 21.9941 64.9006 21.9941H68.8731C69.4606 21.9941 69.9368 21.5179 69.9368 20.9304C69.9368 20.6821 69.8512 20.4544 69.7086 20.2735Z" fill="#9DA4A5"/>
<path d="M66.8869 20.9304C66.8869 20.6821 66.9297 20.4544 67.0009 20.2735L67.8965 15.1166H65.8562L64.065 20.2735C63.9226 20.4545 63.8369 20.6823 63.8369 20.9304C63.8369 21.5179 64.313 21.9941 64.9005 21.9941H67.4186C67.1251 21.9941 66.8869 21.5179 66.8869 20.9304Z" fill="#888889"/>
<path d="M64.9007 21.9941H68.8732C69.4607 21.9941 69.9369 21.5179 69.9369 20.9304C69.9369 20.6821 69.8513 20.4543 69.7087 20.2735H64.0652C63.9228 20.4545 63.837 20.6822 63.837 20.9304C63.837 21.5179 64.3132 21.9941 64.9007 21.9941Z" fill="#888889"/>
<path d="M66.8869 20.9304C66.8869 20.6821 66.9297 20.4543 67.0009 20.2735H64.065C63.9226 20.4545 63.8369 20.6823 63.8369 20.9304C63.8369 21.3343 64.0619 21.6856 64.3934 21.8657C64.4537 21.8985 64.5176 21.9256 64.5842 21.9462C64.6841 21.9774 64.7903 21.9941 64.9005 21.9941H67.4186C67.1251 21.9941 66.8869 21.5179 66.8869 20.9304Z" fill="#79797A"/>
<path d="M13.7621 59.0913C12.6469 59.0913 11.6955 59.7842 11.3096 60.7623C12.8807 62.2076 14.5842 63.5108 16.3999 64.6521V61.7292C16.3998 60.2722 15.219 59.0913 13.7621 59.0913Z" fill="#BFA993"/>
<path d="M13.7621 61.7291C13.7621 60.7532 14.2932 59.9032 15.081 59.447C13.6809 58.6361 11.8981 59.2709 11.3096 60.7622C12.0948 61.4846 12.9132 62.1715 13.7621 62.8204V61.7291V61.7291Z" fill="#AA927D"/>
<path d="M34.9999 59.0913C33.5429 59.0913 32.3621 60.2722 32.3621 61.7292V65.7454H37.6376V61.7292C37.6378 60.2722 36.4569 59.0913 34.9999 59.0913Z" fill="#BFA993"/>
<path d="M36.3188 59.4471C35.9306 59.2222 35.481 59.0913 34.9999 59.0913C33.5429 59.0913 32.3621 60.2722 32.3621 61.7292V65.7454H34.9999V61.7292C34.9999 60.7532 35.5311 59.9032 36.3188 59.4471Z" fill="#AA927D"/>
<path d="M45.5937 59.0913C44.1367 59.0913 42.9559 60.2722 42.9559 61.7292V65.7454H48.2314V61.7292C48.2316 60.2722 47.0507 59.0913 45.5937 59.0913Z" fill="#BFA993"/>
<path d="M46.9126 59.4471C46.5244 59.2222 46.0748 59.0913 45.5937 59.0913C44.1367 59.0913 42.9559 60.2722 42.9559 61.7292V65.7454H45.5937V61.7292C45.5937 60.7532 46.125 59.9032 46.9126 59.4471Z" fill="#AA927D"/>
<path d="M53.5499 61.7291V64.6836C55.3701 63.5438 57.0774 62.2408 58.6525 60.7959C58.2753 59.8003 57.3157 59.0912 56.1878 59.0912C54.7308 59.0914 53.5499 60.2722 53.5499 61.7291Z" fill="#BFA993"/>
<path d="M56.1878 61.7291C56.1878 60.7532 56.7189 59.9032 57.5066 59.447C55.7711 58.4415 53.5499 59.682 53.5499 61.7291V64.6836C54.4581 64.1148 55.3382 63.5055 56.1878 62.8581V61.7291Z" fill="#AA927D"/>
<path d="M3.13673 10.8139C2.54925 10.8139 2.07306 11.2901 2.07306 11.8776V13.4848V15.1166V16.7239C2.07306 17.3113 2.54925 17.7875 3.13673 17.7875C3.72421 17.7875 4.2004 17.3113 4.2004 16.7239V15.1166V13.4848V11.8776C4.2004 11.2901 3.72421 10.8139 3.13673 10.8139Z" fill="#79797A"/>
<path d="M5.95845 20.2735L4.16744 15.1166H2.10599L0.314976 20.2735C0.172515 20.4545 0.086792 20.6823 0.086792 20.9304C0.086792 21.5179 0.562983 21.9941 1.15046 21.9941H5.12296C5.71045 21.9941 6.18664 21.5179 6.18664 20.9304C6.18664 20.6821 6.10091 20.4544 5.95845 20.2735Z" fill="#9DA4A5"/>
<path d="M3.13671 20.9304C3.13671 20.6821 3.17951 20.4544 3.25074 20.2735L4.14625 15.1166H2.10599L0.314976 20.2735C0.172515 20.4545 0.086792 20.6823 0.086792 20.9304C0.086792 21.5179 0.562983 21.9941 1.15046 21.9941H3.66855C3.37474 21.9941 3.13671 21.5179 3.13671 20.9304Z" fill="#888889"/>
<path d="M1.15046 21.9941H5.12296C5.71045 21.9941 6.18664 21.5179 6.18664 20.9304C6.18664 20.6821 6.10091 20.4543 5.95845 20.2735H0.314976C0.172515 20.4545 0.086792 20.6822 0.086792 20.9304C0.086792 21.5179 0.562847 21.9941 1.15046 21.9941Z" fill="#888889"/>
<path d="M3.13671 20.9304C3.13671 20.6821 3.17951 20.4543 3.25074 20.2735H0.314976C0.172515 20.4545 0.086792 20.6822 0.086792 20.9304C0.086792 21.3343 0.311831 21.6856 0.643374 21.8657C0.703667 21.8985 0.767515 21.9256 0.834097 21.9462C0.934038 21.9774 1.04027 21.9941 1.15046 21.9941H3.66855C3.37474 21.9941 3.13671 21.5179 3.13671 20.9304Z" fill="#79797A"/>
<path d="M55.3761 18.9678C55.9635 18.9678 56.4397 19.444 56.4397 20.0315V20.3033V21.6387V21.935V23.2705V23.5423C56.4397 24.1298 55.9635 24.606 55.3761 24.606C54.7886 24.606 54.3124 24.1298 54.3124 23.5423V23.2705V21.935V21.6387V20.3033V20.0315C54.3124 19.444 54.7884 18.9678 55.3761 18.9678Z" fill="#79797A"/>
<path d="M52.5542 26.6794L54.3453 21.5225H56.4066L58.1977 26.6794C58.3402 26.8605 58.4259 27.0882 58.4259 27.3364C58.4259 27.9239 57.9497 28.4 57.3622 28.4H53.3897C52.8022 28.4 52.326 27.9239 52.326 27.3364C52.326 27.0881 52.4118 26.8603 52.5542 26.6794Z" fill="#9DA4A5"/>
<path d="M55.9618 28.394C55.7057 28.3382 55.506 27.8861 55.506 27.3362C55.506 27.0881 55.547 26.8602 55.6152 26.6793L56.4511 21.6509L56.4066 21.5225H54.3453L52.5542 26.6794C52.4118 26.8603 52.326 27.0882 52.326 27.3364C52.326 27.9239 52.8022 28.4 53.3897 28.4H55.9618V28.394V28.394Z" fill="#888889"/>
<path d="M57.3622 28.4001H53.3897C52.8022 28.4001 52.326 27.9239 52.326 27.3364C52.326 27.0881 52.4116 26.8603 52.5542 26.6795H58.1977C58.3402 26.8605 58.4259 27.0882 58.4259 27.3364C58.4259 27.9239 57.9497 28.4001 57.3622 28.4001Z" fill="#888889"/>
<path d="M52.5542 26.6793C52.4116 26.8603 52.326 27.0881 52.326 27.3362C52.326 27.7401 52.5511 28.0913 52.8826 28.2715C53.0333 28.3534 53.206 28.3999 53.3896 28.3999H55.9617V28.3939C55.7056 28.3381 55.5059 27.886 55.5059 27.3361C55.5059 27.088 55.5469 26.8602 55.6151 26.6792H52.5542V26.6793V26.6793Z" fill="#79797A"/>
</svg>
