<svg width="20" height="20" viewBox="0 0 20 20" fill="none" xmlns="http://www.w3.org/2000/svg">
<g clip-path="url(#clip0)">
<path d="M5.08743 5.40106L3.35471 5.53493C2.87257 5.57219 2.44315 5.82488 2.17652 6.2282L0.178211 9.25051C-0.0240135 9.55637 -0.0561617 9.93914 0.0921575 10.2744C0.240516 10.6098 0.545396 10.8434 0.907698 10.8996L2.49421 11.1453C2.86534 9.17575 3.75377 7.21108 5.08743 5.40106V5.40106Z" fill="black" fill-opacity="0.8"/>
<path d="M8.85474 17.5058L9.10048 19.0923C9.15661 19.4546 9.39028 19.7595 9.72555 19.9078C9.86504 19.9695 10.0127 20 10.1596 20C10.366 20 10.5709 19.9399 10.7495 19.8218L13.7719 17.8235C14.1752 17.5568 14.4279 17.1274 14.4651 16.6453L14.599 14.9126C12.7889 16.2463 10.8243 17.1347 8.85474 17.5058V17.5058Z" fill="black" fill-opacity="0.8"/>
<path d="M8.25814 16.4061C8.31322 16.4061 8.36861 16.4016 8.42388 16.3923C9.24903 16.2544 10.0443 16.022 10.803 15.7177L4.28235 9.19708C3.97813 9.95571 3.74571 10.751 3.60775 11.5762C3.55337 11.9015 3.66247 12.2328 3.89563 12.466L7.53404 16.1045C7.72764 16.298 7.98892 16.4061 8.25814 16.4061Z" fill="black" fill-opacity="0.8"/>
<path d="M18.4053 8.86723C20.0009 5.78234 20.06 2.52236 19.9766 0.993469C19.9481 0.469606 19.5304 0.0519527 19.0065 0.0233983C18.7576 0.00980461 18.4625 0 18.13 0C16.4204 0 13.7153 0.258943 11.1327 1.59475C9.08034 2.65635 6.38907 4.99387 4.80127 8.0658C4.82002 8.08044 4.83834 8.09599 4.8556 8.11326L11.8868 15.1444C11.9041 15.1617 11.9196 15.18 11.9342 15.1987C15.0062 13.6109 17.3437 10.9196 18.4053 8.86723V8.86723ZM11.6288 4.22809C12.771 3.08587 14.6296 3.08576 15.7719 4.22809C16.3252 4.78141 16.63 5.51714 16.63 6.29968C16.63 7.08221 16.3252 7.81795 15.7719 8.37126C15.2008 8.94231 14.4505 9.2279 13.7003 9.22797C12.95 9.22801 12.2 8.94247 11.6288 8.37126C11.0754 7.81795 10.7706 7.08221 10.7706 6.29968C10.7706 5.51714 11.0754 4.78141 11.6288 4.22809V4.22809Z" fill="black" fill-opacity="0.8"/>
<path d="M12.4575 7.54262C13.1428 8.22797 14.2581 8.22801 14.9434 7.54262C15.2754 7.21058 15.4583 6.76918 15.4583 6.29965C15.4583 5.83012 15.2754 5.38871 14.9434 5.05672C14.6008 4.71402 14.1506 4.54269 13.7004 4.54269C13.2503 4.54269 12.8002 4.71402 12.4575 5.05672C12.1255 5.38871 11.9426 5.83012 11.9426 6.29965C11.9426 6.76918 12.1255 7.21062 12.4575 7.54262Z" fill="black" fill-opacity="0.8"/>
<path d="M0.59792 16.4819C0.747881 16.4819 0.897842 16.4247 1.01222 16.3102L2.92523 14.3972C3.15405 14.1684 3.15405 13.7974 2.92523 13.5686C2.69644 13.3398 2.32542 13.3398 2.09659 13.5686L0.183584 15.4816C-0.0452441 15.7104 -0.0452441 16.0814 0.183584 16.3102C0.297998 16.4247 0.447959 16.4819 0.59792 16.4819Z" fill="black" fill-opacity="0.8"/>
<path d="M4.67843 15.3217C4.44964 15.0928 4.07862 15.0928 3.8498 15.3217L0.171865 18.9996C-0.0569629 19.2284 -0.0569629 19.5994 0.171865 19.8282C0.286279 19.9427 0.43624 19.9999 0.586201 19.9999C0.736162 19.9999 0.886123 19.9427 1.0005 19.8282L4.67839 16.1503C4.90726 15.9215 4.90726 15.5505 4.67843 15.3217V15.3217Z" fill="black" fill-opacity="0.8"/>
<path d="M5.60265 17.0748L3.68969 18.9878C3.46086 19.2167 3.46086 19.5876 3.68969 19.8165C3.8041 19.9309 3.95406 19.9881 4.10398 19.9881C4.2539 19.9881 4.4039 19.9309 4.51828 19.8165L6.43128 17.9035C6.66011 17.6746 6.66011 17.3036 6.43128 17.0748C6.20249 16.846 5.83148 16.846 5.60265 17.0748Z" fill="black" fill-opacity="0.8"/>
</g>
<defs>
<clipPath id="clip0">
<rect width="20" height="20" fill="white"/>
</clipPath>
</defs>
</svg>
