<svg width="84" height="117" viewBox="0 0 84 117" fill="none" xmlns="http://www.w3.org/2000/svg">
<rect width="84" height="117" rx="5" fill="#A7EBC7"/>
<path fill-rule="evenodd" clip-rule="evenodd" d="M84 94.87H79.3941V90.0139H77.7014V86.6704H77.5611C80.545 83.7647 82.3729 80.3872 82.3729 75.6723C82.3729 66.9348 76.0266 62.378 70.8975 58.6952C68.2139 56.7684 65.8636 55.0808 64.9297 53.1589C65.4072 53.2776 65.8991 53.3419 66.3953 53.3419C68.2486 53.3419 69.9797 52.5167 71.1443 51.0779C71.5494 50.5765 71.8723 50.0181 72.1036 49.4178L72.1395 49.3245L72.0555 49.379C71.0759 50.0139 69.938 50.3496 68.7651 50.3496C67.3893 50.3496 66.0409 49.8716 64.968 49.0039C62.9298 47.3533 62.1891 44.5994 63.1253 42.1508L63.1609 42.0577L63.0772 42.112C62.5387 42.4615 62.0597 42.8933 61.6535 43.3955C60.6273 44.663 60.156 46.254 60.3268 47.8758C60.4975 49.4976 61.2901 50.9558 62.5578 51.9818C63.0482 52.3787 63.5977 52.6904 64.1794 52.9176C63.3314 54.9407 60.8976 56.6882 58.1023 58.6952C52.9731 62.378 46.6267 66.9348 46.6267 75.672C46.6267 80.3868 48.4539 83.7645 51.438 86.6701H51.2978V90.0137H49.6055V94.8698H34.8568V91.5256C35.4861 91.4917 35.9869 90.9758 35.9869 90.339C35.9869 89.7019 35.4861 89.1861 34.8568 89.1524V82.7753C35.4861 82.7414 35.9869 82.2257 35.9869 81.5887C35.9869 81.1502 35.7471 80.7708 35.3941 80.5636C36.8376 79.2376 37.7343 77.7036 37.7343 75.5141C37.7343 71.6685 34.9408 69.6628 32.6828 68.0416C31.1513 66.942 29.8662 66.0194 29.8662 64.8195C29.8662 66.0192 28.5814 66.9419 27.0503 68.0414C24.7928 69.6626 21.9998 71.6685 21.9998 75.5141C21.9998 77.7038 22.8966 79.2378 24.3404 80.5636C23.9877 80.771 23.7483 81.1502 23.7483 81.5887C23.7483 82.2255 24.2487 82.7412 24.8771 82.7753V89.1524C24.2487 89.1865 23.7483 89.7021 23.7483 90.339C23.7483 90.9756 24.2487 91.4915 24.8771 91.5256V94.8698H24.8702V116.942H34.6704V108.432C34.6704 104.9 39.7315 102.586 39.7315 102.586C39.7315 102.586 44.7922 104.9 44.7922 108.432V116.942H57.4032V104.794C57.4032 99.8407 64.5 96.596 64.5 96.596C64.5 96.596 71.5964 99.8409 71.5964 104.794V116.942H79.8811C83.1498 116.491 84 113.537 84 112V94.87Z" fill="#50D890"/>
<path d="M10.8949 38H9.54726V39.5473H8.00002V40.8949H10.8949V38Z" fill="#50D890"/>
<path d="M29.4524 39.5473V38H28.1047V40.8949H30.9996V39.5473H29.4524Z" fill="#50D890"/>
<path d="M29.4531 56.3531V42.6469H28.7792C27.4417 42.6469 26.3535 41.5587 26.3535 40.2211V39.5473H12.6472V40.2211C12.6472 41.5587 11.559 42.6469 10.2214 42.6469H9.54761V56.3531H10.2214C11.559 56.3531 12.6472 57.4413 12.6472 58.7789V59.4527H26.3535V58.7789C26.3535 57.4413 27.4417 56.3531 28.7792 56.3531H29.4531ZM23.2654 53.9001C23.2654 55.1235 22.27 56.1189 21.0465 56.1189C20.4448 56.1189 19.8987 55.8794 19.4985 55.4909C19.0987 55.8794 18.5535 56.1189 17.9533 56.1189C16.7267 56.1189 15.7313 55.1236 15.7313 53.9001L15.734 48.3717C15.734 47.8917 15.3432 47.5009 14.8629 47.5009C14.3793 47.5009 13.9885 47.8917 13.9885 48.3721V50.5781H12.6408V48.3721C12.6408 47.1486 13.6362 46.1532 14.8597 46.1532C16.0863 46.1532 17.0817 47.1486 17.0817 48.3721L17.079 53.9004C17.079 54.3805 17.4698 54.7712 17.9502 54.7712C18.4337 54.7712 18.8245 54.3805 18.8245 53.9001V46.1783H20.1722V53.9001C20.1722 54.3804 20.5629 54.7712 21.0433 54.7712C21.527 54.7712 21.9177 54.3805 21.9177 53.9001V46.1783H23.2654V53.9001H23.2654ZM21.0478 45.1C20.4461 45.1 19.9001 44.8605 19.4999 44.472C19.1001 44.8604 18.5548 45.1 17.9546 45.1C16.728 45.1 15.7326 44.1046 15.7326 42.8811H17.0803C17.0803 43.3615 17.4711 43.7523 17.9515 43.7523C18.435 43.7523 18.8258 43.3615 18.8258 42.8811H20.1735C20.1735 43.3615 20.5642 43.7523 21.0446 43.7523C21.5282 43.7523 21.919 43.3615 21.919 42.8811H23.2667C23.2667 44.1046 22.2713 45.1 21.0478 45.1ZM26.3585 54.127H25.0109V46.1783H26.3585V54.127Z" fill="#50D890"/>
<path d="M8.00037 59.4527H9.54761V61H10.8953V58.105H8.00037V59.4527Z" fill="#50D890"/>
<path d="M28.1047 61H29.4524V59.4527H30.9996V58.105H28.1047V61Z" fill="#50D890"/>
</svg>
