<svg width="11" height="11" viewBox="0 0 11 11" fill="none" xmlns="http://www.w3.org/2000/svg">
<g clip-path="url(#clip0)">
<rect width="11" height="11" fill="white"/>
<path d="M9.84253 2.89435C9.61471 3.00457 9.51937 3.27872 9.62959 3.50643C9.93071 4.12847 10.0833 4.79896 10.0833 5.5C10.0833 8.02721 8.02721 10.0833 5.5 10.0833C2.97279 10.0833 0.916667 8.02721 0.916667 5.5C0.916667 2.97279 2.97279 0.916667 5.5 0.916667C6.54725 0.916667 7.53106 1.25863 8.34534 1.90551C8.54284 2.06317 8.83165 2.03016 8.98931 1.83199C9.14697 1.63393 9.11396 1.34546 8.91568 1.18802C7.95168 0.421855 6.7386 0 5.5 0C2.46746 0 0 2.46746 0 5.5C0 8.53254 2.46746 11 5.5 11C8.53254 11 11 8.53254 11 5.5C11 4.65965 10.8165 3.85432 10.4546 3.10729C10.3446 2.87902 10.0696 2.78391 9.84253 2.89435Z" fill="#C4C4C4"/>
<path d="M5.50002 1.83334C5.24702 1.83334 5.04169 2.03868 5.04169 2.29168V5.50001C5.04169 5.75301 5.24702 5.95834 5.50002 5.95834H7.79169C8.04469 5.95834 8.25002 5.75301 8.25002 5.50001C8.25002 5.24701 8.04469 5.04168 7.79169 5.04168H5.95835V2.29168C5.95835 2.03868 5.75302 1.83334 5.50002 1.83334Z" fill="#C4C4C4"/>
</g>
<defs>
<clipPath id="clip0">
<rect width="11" height="11" fill="white"/>
</clipPath>
</defs>
</svg>
