<svg width="15" height="15" viewBox="0 0 15 15" fill="none" xmlns="http://www.w3.org/2000/svg">
<path d="M13.0664 1.17188H11.7188V0.46875C11.7188 0.209883 11.5089 0 11.25 0C10.9911 0 10.7812 0.209883 10.7812 0.46875V1.17188H4.21875V0.46875C4.21875 0.209883 4.0089 0 3.75 0C3.4911 0 3.28125 0.209883 3.28125 0.46875V1.17188H1.93359C0.867393 1.17188 0 2.03927 0 3.10547V13.0664C0 14.1326 0.867393 15 1.93359 15H13.0664C14.1326 15 15 14.1326 15 13.0664V3.10547C15 2.03927 14.1326 1.17188 13.0664 1.17188ZM14.0625 13.0664C14.0625 13.6165 13.6165 14.0625 13.0664 14.0625H1.93359C1.38346 14.0625 0.9375 13.6165 0.9375 13.0664V5.30273C0.9375 5.22185 1.0031 5.15625 1.08398 5.15625H13.916C13.9969 5.15625 14.0625 5.22185 14.0625 5.30273V13.0664Z" fill="url(#paint0_linear)"/>
<defs>
<linearGradient id="paint0_linear" x1="7.5" y1="0" x2="7.5" y2="15" gradientUnits="userSpaceOnUse">
<stop stop-color="#42B883"/>
<stop offset="1" stop-color="#A7EBC7"/>
</linearGradient>
</defs>
</svg>
