<svg width="15" height="15" viewBox="0 0 15 15" fill="none" xmlns="http://www.w3.org/2000/svg">
<g clip-path="url(#clip0)">
<path d="M12.729 10.659C12.9973 10.6599 13.215 10.4431 13.215 10.1752V1.45157C13.215 0.649878 12.5651 0 11.7635 0H3.2355C2.43381 0 1.78394 0.649878 1.78394 1.45157V13.5479C1.78394 14.3496 2.43381 14.9995 3.2355 14.9995H8.39068C8.65861 14.9995 8.87544 14.7818 8.87453 14.5135C8.87272 14.0684 8.87544 13.1581 8.87544 11.2445C8.87544 10.9215 9.13702 10.6599 9.46 10.6599C11.3733 10.6599 12.2839 10.6572 12.729 10.659ZM7.59141 3.08458H10.797C11.0642 3.08458 11.2808 3.30122 11.2808 3.56843C11.2808 3.83564 11.0642 4.05229 10.797 4.05229H7.59141C7.32417 4.05229 7.10755 3.83564 7.10755 3.56843C7.10755 3.30122 7.32417 3.08458 7.59141 3.08458ZM6.17958 11.0777L4.89434 12.3629C4.70536 12.5519 4.39902 12.5519 4.21005 12.3629L3.77155 11.9244C3.58261 11.7355 3.58261 11.4291 3.77155 11.2401C3.96053 11.0512 4.26687 11.0512 4.45585 11.2401L4.55219 11.3365L5.49529 10.3934C5.68426 10.2044 5.9906 10.2044 6.17958 10.3934C6.36853 10.5824 6.36853 10.8887 6.17958 11.0777ZM6.17958 7.14636L4.89434 8.4316C4.70536 8.62055 4.39902 8.62055 4.21005 8.4316L3.77155 7.99311C3.58261 7.80413 3.58261 7.49779 3.77155 7.30882C3.96053 7.11987 4.26687 7.11987 4.45585 7.30882L4.55219 7.40519L5.49529 6.46207C5.68426 6.27312 5.9906 6.27312 6.17958 6.46207C6.36853 6.65105 6.36853 6.95739 6.17958 7.14636ZM6.17958 3.21504L4.89434 4.50028C4.70536 4.68922 4.39902 4.68922 4.21005 4.50028L3.77155 4.06178C3.58261 3.87281 3.58261 3.56647 3.77155 3.37749C3.96053 3.18855 4.26687 3.18855 4.45585 3.37749L4.55219 3.47387L5.49529 2.53074C5.68426 2.3418 5.9906 2.3418 6.17958 2.53074C6.36853 2.71972 6.36853 3.02606 6.17958 3.21504ZM7.83334 11.9149H7.59141C7.32417 11.9149 7.10755 11.6983 7.10755 11.4311C7.10755 11.1639 7.32417 10.9472 7.59141 10.9472H7.83334C8.10058 10.9472 8.31719 11.1639 8.31719 11.4311C8.31719 11.6983 8.10058 11.9149 7.83334 11.9149ZM7.59141 7.98361C7.32417 7.98361 7.10755 7.76697 7.10755 7.49976C7.10755 7.23255 7.32417 7.0159 7.59141 7.0159H10.797C11.0642 7.0159 11.2808 7.23255 11.2808 7.49976C11.2808 7.76697 11.0642 7.98361 10.797 7.98361H7.59141ZM13.0732 11.8941L10.1096 14.8577C9.80471 15.1624 9.28369 14.945 9.28369 14.5157V11.552C9.28369 11.2847 9.50022 11.0682 9.76755 11.0682H12.7312C13.1549 11.0682 13.3823 11.5849 13.0732 11.8941Z" fill="#42B883"/>
</g>
<defs>
<clipPath id="clip0">
<rect width="15" height="15" fill="white"/>
</clipPath>
</defs>
</svg>
