<svg width="25" height="25" viewBox="0 0 25 25" fill="none" xmlns="http://www.w3.org/2000/svg">
<g clip-path="url(#clip0)">
<path d="M2.97619 9.5238C1.33512 9.5238 0 10.8589 0 12.5C0 14.1411 1.33512 15.4762 2.97619 15.4762C4.61726 15.4762 5.95238 14.1411 5.95238 12.5C5.95238 10.8589 4.61726 9.5238 2.97619 9.5238Z" fill="url(#paint0_linear)"/>
<path d="M10.0238 12.5C10.0238 11.1351 11.1351 10.0238 12.5 10.0238C13.8649 10.0238 14.9762 11.1351 14.9762 12.5C14.9762 13.8649 13.8649 14.9762 12.5 14.9762C11.1351 14.9762 10.0238 13.8649 10.0238 12.5Z" stroke="#42B883"/>
<path d="M22.0238 9.5238C20.3827 9.5238 19.0476 10.8589 19.0476 12.5C19.0476 14.1411 20.3827 15.4762 22.0238 15.4762C23.6649 15.4762 25 14.1411 25 12.5C25 10.8589 23.6649 9.5238 22.0238 9.5238Z" fill="url(#paint1_linear)"/>
<path d="M2.97619 17.8571C1.33512 17.8571 0 19.1923 0 20.8333C0 22.4744 1.33512 23.8095 2.97619 23.8095C4.61726 23.8095 5.95238 22.4744 5.95238 20.8333C5.95238 19.1923 4.61726 17.8571 2.97619 17.8571Z" fill="url(#paint2_linear)"/>
<path d="M10.0238 20.8333C10.0238 19.4684 11.1351 18.3571 12.5 18.3571C13.8649 18.3571 14.9762 19.4684 14.9762 20.8333C14.9762 22.1983 13.8649 23.3095 12.5 23.3095C11.1351 23.3095 10.0238 22.1983 10.0238 20.8333Z" stroke="#42B883"/>
<path d="M22.0238 17.8571C20.3827 17.8571 19.0476 19.1923 19.0476 20.8333C19.0476 22.4744 20.3827 23.8095 22.0238 23.8095C23.6649 23.8095 25 22.4744 25 20.8333C25 19.1923 23.6649 17.8571 22.0238 17.8571Z" fill="url(#paint3_linear)"/>
<path d="M2.97619 1.19046C1.33512 1.19046 0 2.52558 0 4.16665C0 5.80772 1.33512 7.14284 2.97619 7.14284C4.61726 7.14284 5.95238 5.80772 5.95238 4.16665C5.95238 2.52558 4.61726 1.19046 2.97619 1.19046Z" fill="url(#paint4_linear)"/>
<path d="M10.0238 4.16665C10.0238 2.80172 11.1351 1.69046 12.5 1.69046C13.8649 1.69046 14.9762 2.80172 14.9762 4.16665C14.9762 5.53158 13.8649 6.64284 12.5 6.64284C11.1351 6.64284 10.0238 5.53158 10.0238 4.16665Z" stroke="#42B883"/>
<path d="M22.0238 1.19046C20.3827 1.19046 19.0476 2.52558 19.0476 4.16665C19.0476 5.80772 20.3827 7.14284 22.0238 7.14284C23.6649 7.14284 25 5.80772 25 4.16665C25 2.52558 23.6649 1.19046 22.0238 1.19046Z" fill="url(#paint5_linear)"/>
</g>
<defs>
<linearGradient id="paint0_linear" x1="2.97619" y1="9.5238" x2="2.97619" y2="15.4762" gradientUnits="userSpaceOnUse">
<stop stop-color="#42B883"/>
<stop offset="1" stop-color="#A7EBC7"/>
</linearGradient>
<linearGradient id="paint1_linear" x1="22.0238" y1="9.5238" x2="22.0238" y2="15.4762" gradientUnits="userSpaceOnUse">
<stop stop-color="#42B883"/>
<stop offset="1" stop-color="#A7EBC7"/>
</linearGradient>
<linearGradient id="paint2_linear" x1="2.97619" y1="17.8571" x2="2.97619" y2="23.8095" gradientUnits="userSpaceOnUse">
<stop stop-color="#42B883"/>
<stop offset="1" stop-color="#A7EBC7"/>
</linearGradient>
<linearGradient id="paint3_linear" x1="22.0238" y1="17.8571" x2="22.0238" y2="23.8095" gradientUnits="userSpaceOnUse">
<stop stop-color="#42B883"/>
<stop offset="1" stop-color="#A7EBC7"/>
</linearGradient>
<linearGradient id="paint4_linear" x1="2.97619" y1="1.19046" x2="2.97619" y2="7.14284" gradientUnits="userSpaceOnUse">
<stop stop-color="#42B883"/>
<stop offset="1" stop-color="#A7EBC7"/>
</linearGradient>
<linearGradient id="paint5_linear" x1="22.0238" y1="1.19046" x2="22.0238" y2="7.14284" gradientUnits="userSpaceOnUse">
<stop stop-color="#42B883"/>
<stop offset="1" stop-color="#A7EBC7"/>
</linearGradient>
<clipPath id="clip0">
<rect width="25" height="25" fill="white"/>
</clipPath>
</defs>
</svg>
