<svg width="25" height="25" viewBox="0 0 25 25" fill="none" xmlns="http://www.w3.org/2000/svg">
<g clip-path="url(#clip0)">
<path d="M3.91602 24.9721L9.83726 23.2847C9.68907 23.2422 2.53848 21.1966 2.97852 21.3226V24.2691C2.97852 24.5034 3.08106 24.7085 3.27149 24.855C3.4793 25.0166 3.68242 25.0189 3.91602 24.9721Z" fill="url(#paint0_linear)"/>
<path d="M21.7285 24.855C21.9189 24.7086 22.0215 24.5035 22.0215 24.2691V21.3228C21.8732 21.3652 14.7225 23.4106 15.1626 23.2848L21.084 24.9722C21.3139 25.0183 21.5184 25.0185 21.7285 24.855Z" fill="url(#paint1_linear)"/>
<path d="M20.5566 0.734406C20.5566 0.234552 20.0668 -0.118524 19.5927 0.0395326L13.2324 2.15926V14.9667C13.7373 14.4782 14.3491 14.0912 15.0478 13.8584L20.5566 12.0226C20.5566 9.5826 20.5566 3.14891 20.5566 0.734406Z" fill="url(#paint2_linear)"/>
<path d="M11.7676 14.967C11.7676 10.0996 11.7676 4.64808 11.7676 2.15926L5.40732 0.0395359C4.93315 -0.118521 4.44336 0.234507 4.44336 0.734409V12.0227L9.95225 13.8592C10.6509 14.0917 11.2627 14.4786 11.7676 14.967Z" fill="url(#paint3_linear)"/>
<path d="M24.0039 2.97498L22.0215 3.7074V15.4799C22.0215 15.7953 21.8198 16.075 21.5208 16.1744L12.7317 19.1041C12.6566 19.1292 12.578 19.142 12.5 19.142C12.422 19.142 12.3434 19.1291 12.2683 19.1041L3.4792 16.1744C3.18022 16.075 2.97852 15.7953 2.97852 15.4799V3.7074L0.996094 2.97498C0.761768 2.88709 0.512646 2.93108 0.322217 3.06287C0.117236 3.19475 0 3.42908 0 3.6635V18.4096C0 18.7318 0.219775 19.0248 0.527344 19.1127C0.878467 19.2124 0.664941 19.151 0.569922 19.1236C0.846436 19.2028 2.90273 19.7783 12.499 22.5255C12.5136 22.5217 12.5366 22.5156 12.499 22.5255C12.4993 22.5256 12.4997 22.5257 12.5 22.5258C13.7198 22.1752 13.4237 22.2752 24.4727 19.1126C24.7803 19.0247 25 18.7318 25 18.4095V3.66345C25 3.42903 24.8828 3.1947 24.6778 3.06282C24.4874 2.93108 24.2382 2.88709 24.0039 2.97498ZM0.551172 19.1182C0.528857 19.1118 0.52417 19.1104 0.551172 19.1182V19.1182Z" fill="url(#paint4_linear)"/>
<path d="M12.4984 22.5256C12.4984 22.5256 12.4983 22.5257 12.4984 22.5256V22.5256Z" fill="url(#paint5_linear)"/>
<path d="M4.44336 14.9521L11.5867 17.3334C11.2575 16.3677 10.4969 15.5843 9.48877 15.2489L4.44336 13.5663V14.9521Z" fill="url(#paint6_linear)"/>
<path d="M13.4133 17.3334L20.5566 14.9521V13.5662L15.5112 15.2482C14.5031 15.5841 13.7425 16.3675 13.4133 17.3334Z" fill="url(#paint7_linear)"/>
</g>
<defs>
<linearGradient id="paint0_linear" x1="6.39814" y1="21.317" x2="6.39814" y2="24.9985" gradientUnits="userSpaceOnUse">
<stop stop-color="#42B883"/>
<stop offset="1" stop-color="#A7EBC7"/>
</linearGradient>
<linearGradient id="paint1_linear" x1="18.5823" y1="21.3228" x2="18.5823" y2="24.9987" gradientUnits="userSpaceOnUse">
<stop stop-color="#42B883"/>
<stop offset="1" stop-color="#A7EBC7"/>
</linearGradient>
<linearGradient id="paint2_linear" x1="16.8945" y1="0.00140381" x2="16.8945" y2="14.9667" gradientUnits="userSpaceOnUse">
<stop stop-color="#42B883"/>
<stop offset="1" stop-color="#A7EBC7"/>
</linearGradient>
<linearGradient id="paint3_linear" x1="8.10547" y1="0.00140381" x2="8.10547" y2="14.967" gradientUnits="userSpaceOnUse">
<stop stop-color="#42B883"/>
<stop offset="1" stop-color="#A7EBC7"/>
</linearGradient>
<linearGradient id="paint4_linear" x1="12.5" y1="2.92926" x2="12.5" y2="22.5258" gradientUnits="userSpaceOnUse">
<stop stop-color="#42B883"/>
<stop offset="1" stop-color="#A7EBC7"/>
</linearGradient>
<linearGradient id="paint5_linear" x1="12.4983" y1="22.5256" x2="12.4983" y2="22.5256" gradientUnits="userSpaceOnUse">
<stop stop-color="#42B883"/>
<stop offset="1" stop-color="#A7EBC7"/>
</linearGradient>
<linearGradient id="paint6_linear" x1="8.01504" y1="13.5663" x2="8.01504" y2="17.3334" gradientUnits="userSpaceOnUse">
<stop stop-color="#42B883"/>
<stop offset="1" stop-color="#A7EBC7"/>
</linearGradient>
<linearGradient id="paint7_linear" x1="16.9849" y1="13.5662" x2="16.9849" y2="17.3334" gradientUnits="userSpaceOnUse">
<stop stop-color="#42B883"/>
<stop offset="1" stop-color="#A7EBC7"/>
</linearGradient>
<clipPath id="clip0">
<rect width="25" height="25" fill="white"/>
</clipPath>
</defs>
</svg>
