<svg width="25" height="25" viewBox="0 0 25 25" fill="none" xmlns="http://www.w3.org/2000/svg">
<path d="M12.5042 6.91185C12.6953 6.45142 12.2324 5.98793 11.7699 6.17561C9.03588 7.28493 8.30403 10.8129 10.3266 12.9259C12.4311 15.1247 16.0807 14.3959 17.2092 11.614C17.3965 11.1523 16.9331 10.6892 16.4728 10.8805C13.9778 11.9163 11.4666 9.4099 12.5042 6.91185ZM16.3616 11.6953C15.2493 13.7289 12.4691 14.1052 10.8557 12.4195C9.30462 10.799 9.69754 8.111 11.6894 7.02305C10.8551 9.8732 13.5145 12.5282 16.3616 11.6953Z" fill="black"/>
<path d="M17.294 6.33411L16.4567 6.21243L16.0822 5.45368C15.8883 5.06096 15.3283 5.06134 15.1349 5.45368L14.7604 6.21243L13.9231 6.33411C13.49 6.39687 13.317 6.92959 13.6303 7.23515L14.2363 7.82566L14.0931 8.65955C14.0192 9.0908 14.4722 9.42001 14.8596 9.21631L15.6085 8.82263L16.3573 9.21631C16.7447 9.42001 17.1979 9.0908 17.1238 8.65955L16.9808 7.82566L17.5866 7.23515C17.9001 6.92959 17.727 6.39706 17.294 6.33411ZM16.3926 7.37629C16.2682 7.4976 16.2116 7.67231 16.2409 7.84359L16.3321 8.37555L15.8545 8.12435C15.7006 8.04348 15.5167 8.04348 15.3628 8.12435L14.885 8.37555L14.9764 7.84359C15.0057 7.67231 14.9489 7.4976 14.8243 7.3761L14.4379 6.9994L14.972 6.92177C15.144 6.89659 15.2928 6.78864 15.3698 6.6328L15.6086 6.14872L15.8476 6.633C15.9247 6.78864 16.0733 6.89659 16.2453 6.92177L16.7794 6.9994L16.3926 7.37629Z" fill="black"/>
<path d="M15.3132 16.3813C15.3132 16.1791 15.1494 16.0151 14.947 16.0151H11.8638C11.6614 16.0151 11.4976 16.1791 11.4976 16.3813C11.4976 16.5836 11.6614 16.7475 11.8638 16.7475H14.947C15.1494 16.7475 15.3132 16.5836 15.3132 16.3813Z" fill="black"/>
<path d="M12.6345 17.3918C12.4323 17.3918 12.2683 17.5556 12.2683 17.758C12.2683 17.9602 12.4323 18.1242 12.6345 18.1242H14.1762C14.3784 18.1242 14.5424 17.9602 14.5424 17.758C14.5424 17.5556 14.3784 17.3918 14.1762 17.3918H12.6345Z" fill="black"/>
<path d="M12.5509 1.56975H7.8947C7.36236 1.56975 6.9292 2.00291 6.9292 2.53525V19.4893C6.9292 20.0216 7.36236 20.4546 7.8947 20.4546H19.0298C19.5621 20.4546 19.9951 20.0216 19.9951 19.4893V2.53525C19.9951 2.00291 19.5621 1.56975 19.0298 1.56975H14.2599C14.0575 1.56975 13.8937 1.73378 13.8937 1.93596C13.8937 2.13814 14.0575 2.30217 14.2599 2.30217H19.0298C19.1561 2.30217 19.2627 2.40879 19.2627 2.53525V19.4893C19.2627 19.6156 19.1561 19.7222 19.0298 19.7222H7.89451C7.76824 19.7222 7.66162 19.6156 7.66162 19.4893V2.53525C7.66162 2.40879 7.76843 2.30217 7.89451 2.30217H12.5507C12.7531 2.30217 12.9169 2.13814 12.9169 1.93596C12.9169 1.73378 12.7531 1.56975 12.5509 1.56975Z" fill="black"/>
<path d="M21.2151 12.0117C21.4174 12.0117 21.5813 11.8477 21.5813 11.6455V1.16558C21.5813 0.522804 21.0585 0 20.4157 0C20.2221 0 5.47867 0 5.26829 0C4.24805 0 3.41797 0.830078 3.41797 1.85032V23.1497C3.41797 24.1699 4.24805 25 5.26829 25H20.6612C21.1685 25 21.5813 24.5872 21.5813 24.0799V13.3545C21.5813 13.1523 21.4174 12.9883 21.2151 12.9883C21.0129 12.9883 20.8488 13.1523 20.8488 13.3545V21.2994H6.01387V0.732422H20.4157C20.6547 0.732422 20.8488 0.926781 20.8488 1.16558V11.6455C20.8488 11.8479 21.0129 12.0117 21.2151 12.0117ZM4.15039 23.1497C4.15039 22.5332 4.65183 22.0316 5.26829 22.0316H18.9249C18.6884 22.3425 18.5476 22.7299 18.5476 23.1497C18.5476 23.5693 18.6884 23.9567 18.9249 24.2676H5.26829C4.65183 24.2676 4.15039 23.7661 4.15039 23.1497ZM20.8488 24.0799C20.8488 24.1835 20.7647 24.2676 20.6612 24.2676H20.3978C19.7815 24.2674 19.2801 23.7659 19.2801 23.1497C19.2801 22.5334 19.7815 22.0318 20.3976 22.0316H20.8488V24.0799ZM5.28145 21.2992C4.85153 21.2992 4.46339 21.4371 4.15039 21.6761V1.85032C4.15039 1.23386 4.65183 0.732422 5.26829 0.732422H5.28145V21.2992Z" fill="black"/>
</svg>
