<svg width="18" height="18" viewBox="0 0 18 18" fill="none" xmlns="http://www.w3.org/2000/svg">
<g clip-path="url(#clip0)">
<path d="M17.7801 16.7196L12.6614 11.6009C13.6529 10.3762 14.2498 8.81993 14.2498 7.12496C14.2498 3.1965 11.0534 1.52588e-05 7.12491 1.52588e-05C3.19645 1.52588e-05 0 3.19646 0 7.12492C0 11.0534 3.19648 14.2499 7.12494 14.2499C8.81991 14.2499 10.3762 13.6529 11.6009 12.6614L16.7196 17.7801C16.8658 17.9263 17.0578 17.9998 17.2498 17.9998C17.4419 17.9998 17.6339 17.9263 17.7801 17.7801C18.0733 17.4868 18.0733 17.0128 17.7801 16.7196ZM7.12494 12.7499C4.02296 12.7499 1.5 10.2269 1.5 7.12492C1.5 4.02294 4.02296 1.49998 7.12494 1.49998C10.2269 1.49998 12.7499 4.02294 12.7499 7.12492C12.7499 10.2269 10.2269 12.7499 7.12494 12.7499Z" fill="#DEDEDE"/>
</g>
<defs>
<clipPath id="clip0">
<rect width="18" height="18" fill="white"/>
</clipPath>
</defs>
</svg>
